<svg width="228" height="165" viewBox="0 0 228 165" fill="none" xmlns="http://www.w3.org/2000/svg">
<path d="M99.658 65.9273H92.6768V69.5632H99.658C102.923 69.5632 105.859 67.7834 107.319 64.9225L104 63.2959C103.173 64.9185 101.51 65.9271 99.658 65.9271V65.9273Z" fill="#F96C6C"/>
<path d="M141.914 93.7406C142.648 96.6293 145.283 98.6448 148.322 98.6448C151.36 98.6448 153.996 96.6293 154.731 93.7414L156.263 87.739H140.381L141.914 93.7406ZM151.511 91.3745L151.13 92.8594C150.81 94.1265 149.654 95.0093 148.322 95.0093C146.99 95.0093 145.834 94.1258 145.512 92.8594L145.133 91.3745H151.511Z" fill="#F96C6C"/>
<path d="M140.903 80.4689H144.613V78.6515C144.613 75.6453 142.117 73.1982 139.049 73.1982C135.981 73.1982 133.484 75.6445 133.484 78.6515V80.4689H137.194V78.6515C137.194 77.6484 138.026 76.834 139.048 76.834C140.07 76.834 140.903 77.6484 140.903 78.6515L140.903 80.4689Z" fill="#F96C6C"/>
<path d="M157.595 73.1982C154.527 73.1982 152.03 75.6445 152.03 78.6515V80.4689H155.74V78.6515C155.74 77.6484 156.572 76.834 157.594 76.834C158.616 76.834 159.449 77.6484 159.449 78.6515V80.4689H163.159V78.6515C163.159 75.6453 160.663 73.1982 157.594 73.1982H157.595Z" fill="#F96C6C"/>
<path d="M177.999 67.3361C177.999 63.5683 176.088 60.0696 172.889 57.9809L172.181 57.5171C170.678 52.7456 166.554 49.1885 161.488 48.3616L158.466 47.8688C155.778 45.4429 152.313 44.1161 148.639 44.1161H148.003C144.33 44.1161 140.863 45.443 138.178 47.8682L135.158 48.361C134.423 48.4813 133.708 48.67 133.008 48.9042C132.525 47.608 131.678 46.494 130.584 45.6633L132.159 41.034C133.038 38.4493 133.483 35.7586 133.483 33.0381C133.483 19.1024 121.913 7.76465 107.691 7.76465H97.1348C89.2206 7.76465 81.8342 11.1511 76.7709 17.0781L76.0859 17.2691C68.3809 19.4284 63 26.4192 63 34.2729C63 36.176 63.3112 38.0572 63.9257 39.8643L65.899 45.6639C64.1479 46.994 63 49.052 63 51.3873C63 55.3972 66.3274 58.6578 70.4193 58.6578H72.4745C73.8302 67.6529 80.0534 75.0949 88.3054 78.4843L87.5081 80.8308C79.5826 83.4831 74.1295 90.8824 74.1295 99.1544C74.1295 104.442 77.1304 109.051 81.5488 111.443V116.822C81.5488 118.826 83.2125 120.457 85.2588 120.457H114.935V116.822H114.936C119.027 116.822 122.355 113.561 122.355 109.551V96.9565C122.355 89.1153 116.66 82.3133 108.928 80.6885L108.179 78.4835C112.491 76.7094 116.238 73.8283 119.035 70.1865C119.236 70.9372 119.503 71.6714 119.857 72.3655L121.208 75.017C119.651 76.351 118.646 78.2887 118.646 80.4694C118.646 84.4792 121.973 87.7399 126.065 87.7399H126.401C127.304 92.9783 130.097 97.5935 134.095 100.86L131.528 102.117C128.157 103.766 126.065 107.085 126.065 110.777C126.065 116.114 130.496 120.457 135.943 120.457H160.701C166.149 120.457 170.581 116.113 170.581 110.777C170.581 107.085 168.488 103.768 165.12 102.117L162.553 100.86C166.551 97.5935 169.344 92.9799 170.247 87.7399H170.581C174.673 87.7399 178 84.4792 178 80.4694C178 78.2879 176.995 76.3502 175.436 75.0162L176.789 72.3663C177.58 70.8146 178 69.0751 178 67.337L177.999 67.3361ZM100.095 44.1153H96.3852C96.3852 42.1108 94.7215 40.4797 92.6753 40.4797L77.8391 40.4805C77.8536 38.0719 79.5068 35.9307 81.8717 35.2695L87.0633 33.8176C90.3018 35.7435 94.0454 36.8448 97.927 36.8448H113.079C115.495 36.8448 117.534 38.3698 118.302 40.4803H103.805C101.759 40.4803 100.095 42.1107 100.095 44.1151L100.095 44.1153ZM75.8344 55.0213H74.1282V44.1153H92.6768L92.6784 55.0213H75.8344ZM103.806 44.1153H122.354L122.356 55.0213H103.806L103.806 44.1153ZM126.064 55.0213V47.7508C128.11 47.7508 129.774 49.3812 129.774 51.3864C129.774 53.3909 128.11 55.0211 126.064 55.0211V55.0213ZM67.4436 38.7116C66.9559 37.277 66.7096 35.7834 66.7096 34.2711C66.7096 28.0312 70.9851 22.4782 77.1058 20.7647L78.9179 20.2577L79.2869 19.8049C83.6474 14.4626 90.1539 11.3986 97.1335 11.3986H107.689C119.867 11.3986 129.773 21.1059 129.773 33.0377C129.773 35.3676 129.391 37.6707 128.64 39.8829L127.163 44.2252C126.802 44.1726 126.44 44.116 126.064 44.116C126.064 42.1115 124.4 40.4804 122.354 40.4804H122.166C121.304 36.3378 117.558 33.2099 113.079 33.2099H97.9271C91.9044 33.2099 86.2378 30.0672 83.1368 25.0033L79.9554 26.8734C80.9092 28.429 82.0644 29.8321 83.3719 31.0663L80.8546 31.7746C76.9056 32.8814 74.1477 36.4604 74.1309 40.4813H74.1293C72.0837 40.4813 70.4193 42.1117 70.4193 44.1169C70.0431 44.1169 69.6813 44.1735 69.3211 44.2261L67.4436 38.7116ZM66.7096 51.3856C66.7096 49.3811 68.3733 47.75 70.4196 47.75V55.0205C68.3733 55.0213 66.7096 53.391 66.7096 51.3858V51.3856ZM85.2574 112.821C86.2849 113.052 87.3495 113.185 88.4476 113.185H88.9674V116.82H85.2574L85.2574 112.821ZM103.806 116.819H92.6767V113.184H100.096C101.454 113.184 102.71 112.799 103.806 112.173V116.819ZM103.806 99.6544C102.709 99.0287 101.454 98.6435 100.096 98.6435H92.6767V95.0079H103.806V99.6544ZM100.096 102.278C102.141 102.278 103.806 103.909 103.806 105.914C103.806 107.918 102.142 109.549 100.096 109.549H96.386V102.279L100.096 102.278ZM114.935 113.184V109.549H118.644C118.644 111.554 116.981 113.184 114.935 113.184ZM118.644 96.955V105.914H114.935V97.5784C114.935 96.4064 115.4 95.3042 116.248 94.4757L113.623 91.9053C112.076 93.4217 111.225 95.4356 111.225 97.5784L111.223 116.819H107.515V95.0072C107.515 93.0027 105.851 91.3717 103.805 91.3717H92.676C90.6305 91.3717 88.966 93.002 88.966 95.0072V98.7152C87.0721 98.8881 85.3066 99.6569 83.9428 100.992L86.5675 103.563C87.4146 102.734 88.5384 102.278 89.7353 102.278H92.6768V109.548H88.4477C82.5975 109.548 77.8382 104.887 77.8382 99.1513C77.8382 92.4391 82.2638 86.4458 88.6909 84.2865L90.4155 85.4138C92.7401 86.9357 95.4459 87.7367 98.2414 87.7367C101.037 87.7367 103.743 86.9349 106.066 85.4154L107.916 84.2088C114.074 85.3887 118.645 90.749 118.645 96.9543L118.644 96.955ZM105.308 81.543L104.01 82.392C100.584 84.6316 95.9007 84.6316 92.4745 82.392L91.1742 81.543L91.82 79.647C93.8824 80.1705 96.0306 80.4669 98.2414 80.4669C100.452 80.4669 102.601 80.1705 104.663 79.647L105.308 81.543ZM98.2414 76.832C87.3945 76.832 78.1021 69.02 76.2437 58.6555H92.6769C94.7224 58.6555 96.3868 57.0251 96.3868 55.0199V47.7494H100.097V55.0199C100.097 57.0244 101.76 58.6555 103.807 58.6555H120.244C118.414 68.987 109.108 76.832 98.2422 76.832H98.2414ZM122.354 80.4668C122.354 78.4623 124.018 76.8312 126.064 76.8312V84.1017C124.018 84.1025 122.354 82.4722 122.354 80.467V80.4668ZM129.774 110.775C129.774 108.469 131.081 106.398 133.184 105.368L137.599 103.204C138.595 103.744 139.647 104.193 140.729 104.578L141.936 107.732H139.816C137.628 107.732 135.572 108.566 134.025 110.083L136.65 112.653C137.495 111.824 138.619 111.368 139.816 111.368H140.903V116.821H135.943C132.541 116.82 129.774 114.109 129.774 110.775V110.775ZM144.612 116.82V111.367H145.539C147.073 111.367 148.321 112.59 148.321 114.093C148.322 115.597 147.074 116.82 145.539 116.82H144.612ZM163.462 105.368C165.562 106.398 166.87 108.469 166.87 110.775C166.87 114.109 164.103 116.82 160.701 116.82H151.381C151.785 115.992 152.031 115.073 152.031 114.094C152.031 113.115 151.784 112.196 151.38 111.368H156.828C158.024 111.368 159.148 111.824 159.994 112.653L162.618 110.083C161.072 108.567 159.017 107.732 156.828 107.732H145.898L145.106 105.66C146.159 105.811 147.228 105.915 148.322 105.915C152.209 105.915 155.862 104.927 159.046 103.204L163.462 105.368ZM166.87 84.103C166.87 94.1256 158.549 102.28 148.321 102.28C146.676 102.28 145.09 102.048 143.571 101.652L140.783 94.3692L137.309 95.6474L138.864 99.7114C133.433 96.5373 129.774 90.7374 129.774 84.103V71.3418C129.774 69.8844 130.657 68.5731 132.021 67.9994L138.352 65.3401C141.309 67.0592 144.67 68.0938 148.188 68.3083L163.392 69.2406C165.342 69.3585 166.87 70.9527 166.87 72.8661L166.87 84.103ZM170.58 84.103V76.8324C172.626 76.8324 174.29 78.4628 174.29 80.468C174.289 82.4725 172.625 84.1028 170.58 84.1028V84.103ZM170.58 73.1969V72.866C170.58 69.0362 167.525 65.8478 163.624 65.6095L148.42 64.6772C143.082 64.3502 138.18 61.7601 134.969 57.5647L132 59.7469C132.864 60.8797 133.833 61.9118 134.886 62.8401L130.561 64.6576C127.83 65.8045 126.064 68.4275 126.064 71.3409V73.1968C125.532 73.1968 125.014 73.2566 124.514 73.3619L123.175 70.7372C122.638 69.6869 122.354 68.5111 122.354 67.335C122.354 64.7849 123.647 62.418 125.813 61.0039L127.69 59.7768L127.865 59.0953C127.931 58.8351 128.041 58.5883 128.13 58.3336C130.79 57.5718 132.838 55.4148 133.347 52.706C134.121 52.3609 134.922 52.0826 135.767 51.9458L139.939 51.2643L140.36 50.8516C142.401 48.8518 145.117 47.7505 148.005 47.7505H148.641C151.528 47.7505 154.244 48.8518 156.286 50.8532L156.707 51.2659L160.881 51.9474C164.734 52.5763 167.836 55.3826 168.785 59.0976L168.959 59.7791L170.836 61.0062C172.997 62.4188 174.289 64.7849 174.289 67.3349C174.289 68.5093 174.005 69.687 173.469 70.7379L172.13 73.3626C171.63 73.2573 171.112 73.1967 170.58 73.1967L170.58 73.1969Z" fill="#F96C6C"/>
<path d="M172.434 11.3989H142.756C139.688 11.3989 137.191 13.8452 137.191 16.8521V31.3932C137.191 34.3993 139.687 36.8464 142.756 36.8464H152.436L153.49 40.978C153.963 42.8253 155.651 44.1161 157.594 44.1161C159.538 44.1161 161.226 42.8254 161.699 40.975L162.753 36.8456H172.433C175.5 36.8456 177.997 34.3993 177.997 31.3924V16.8513C177.997 13.8452 175.501 11.3989 172.433 11.3989H172.434ZM174.288 31.3924C174.288 32.3955 173.456 33.2098 172.434 33.2098H159.856L158.1 40.0936C157.983 40.548 157.205 40.5464 157.089 40.0952L155.335 33.2106H142.757C141.735 33.2106 140.902 32.3962 140.902 31.3932V16.8513C140.902 15.8482 141.735 15.0338 142.757 15.0338H172.435C173.457 15.0338 174.289 15.8482 174.289 16.8513L174.288 31.3924Z" fill="#F96C6C"/>
<path d="M144.612 18.6697H152.031V22.305H144.612V18.6697Z" fill="#F96C6C"/>
<path d="M155.741 18.6697H170.579V22.305H155.741V18.6697Z" fill="#F96C6C"/>
<path d="M144.612 25.9404H170.579V29.5758H144.612V25.9404Z" fill="#F96C6C"/>
<path fill-rule="evenodd" clip-rule="evenodd" d="M95.7961 1.08569C124.35 0.183097 154.295 6.27837 172.239 25.6761C190.284 45.1831 190.753 72.0541 183.979 96.4139C177.337 120.296 163.983 146.685 136.797 153.127C111.777 159.056 94.5634 133.21 71.373 123.097C49.0379 113.358 16.8092 116.57 7.01236 96.5335C-3.75643 74.5098 8.70344 48.8913 25.9979 30.2987C43.1048 11.9077 68.6643 1.94332 95.7961 1.08569Z" fill="#FF4F4F" fill-opacity="0.1"/>
<path fill-rule="evenodd" clip-rule="evenodd" d="M125.796 1.08569C154.35 0.183097 184.295 6.27837 202.239 25.6761C220.284 45.1831 220.753 72.0541 213.979 96.4139C207.337 120.296 193.983 146.685 166.797 153.127C141.777 159.056 124.563 133.21 101.373 123.097C79.0379 113.358 46.8092 116.57 37.0124 96.5335C26.2436 74.5098 38.7034 48.8913 55.9979 30.2987C73.1048 11.9077 98.6643 1.94332 125.796 1.08569Z" fill="#FF4F4F" fill-opacity="0.1"/>
<path d="M99.658 65.9273H92.6768V69.5632H99.658C102.923 69.5632 105.859 67.7834 107.319 64.9225L104 63.2959C103.173 64.9185 101.51 65.9271 99.658 65.9271V65.9273Z" fill="#F96C6C"/>
<path d="M141.914 93.7406C142.648 96.6293 145.283 98.6448 148.322 98.6448C151.36 98.6448 153.996 96.6293 154.731 93.7414L156.263 87.739H140.381L141.914 93.7406ZM151.511 91.3745L151.13 92.8594C150.81 94.1265 149.654 95.0093 148.322 95.0093C146.99 95.0093 145.834 94.1258 145.512 92.8594L145.133 91.3745H151.511Z" fill="#F96C6C"/>
<path d="M140.903 80.4689H144.613V78.6515C144.613 75.6453 142.117 73.1982 139.049 73.1982C135.981 73.1982 133.484 75.6445 133.484 78.6515V80.4689H137.194V78.6515C137.194 77.6484 138.026 76.834 139.048 76.834C140.07 76.834 140.903 77.6484 140.903 78.6515L140.903 80.4689Z" fill="#F96C6C"/>
<path d="M157.595 73.1982C154.527 73.1982 152.03 75.6445 152.03 78.6515V80.4689H155.74V78.6515C155.74 77.6484 156.572 76.834 157.594 76.834C158.616 76.834 159.449 77.6484 159.449 78.6515V80.4689H163.159V78.6515C163.159 75.6453 160.663 73.1982 157.594 73.1982H157.595Z" fill="#F96C6C"/>
<path d="M177.999 67.3361C177.999 63.5683 176.088 60.0696 172.889 57.9809L172.181 57.5171C170.678 52.7456 166.554 49.1885 161.488 48.3616L158.466 47.8688C155.778 45.4429 152.313 44.1161 148.639 44.1161H148.003C144.33 44.1161 140.863 45.443 138.178 47.8682L135.158 48.361C134.423 48.4813 133.708 48.67 133.008 48.9042C132.525 47.608 131.678 46.494 130.584 45.6633L132.159 41.034C133.038 38.4493 133.483 35.7586 133.483 33.0381C133.483 19.1024 121.913 7.76465 107.691 7.76465H97.1348C89.2206 7.76465 81.8342 11.1511 76.7709 17.0781L76.0859 17.2691C68.3809 19.4284 63 26.4192 63 34.2729C63 36.176 63.3112 38.0572 63.9257 39.8643L65.899 45.6639C64.1479 46.994 63 49.052 63 51.3873C63 55.3972 66.3274 58.6578 70.4193 58.6578H72.4745C73.8302 67.6529 80.0534 75.0949 88.3054 78.4843L87.5081 80.8308C79.5826 83.4831 74.1295 90.8824 74.1295 99.1544C74.1295 104.442 77.1304 109.051 81.5488 111.443V116.822C81.5488 118.826 83.2125 120.457 85.2588 120.457H114.935V116.822H114.936C119.027 116.822 122.355 113.561 122.355 109.551V96.9565C122.355 89.1153 116.66 82.3133 108.928 80.6885L108.179 78.4835C112.491 76.7094 116.238 73.8283 119.035 70.1865C119.236 70.9372 119.503 71.6714 119.857 72.3655L121.208 75.017C119.651 76.351 118.646 78.2887 118.646 80.4694C118.646 84.4792 121.973 87.7399 126.065 87.7399H126.401C127.304 92.9783 130.097 97.5935 134.095 100.86L131.528 102.117C128.157 103.766 126.065 107.085 126.065 110.777C126.065 116.114 130.496 120.457 135.943 120.457H160.701C166.149 120.457 170.581 116.113 170.581 110.777C170.581 107.085 168.488 103.768 165.12 102.117L162.553 100.86C166.551 97.5935 169.344 92.9799 170.247 87.7399H170.581C174.673 87.7399 178 84.4792 178 80.4694C178 78.2879 176.995 76.3502 175.436 75.0162L176.789 72.3663C177.58 70.8146 178 69.0751 178 67.337L177.999 67.3361ZM100.095 44.1153H96.3852C96.3852 42.1108 94.7215 40.4797 92.6753 40.4797L77.8391 40.4805C77.8536 38.0719 79.5068 35.9307 81.8717 35.2695L87.0633 33.8176C90.3018 35.7435 94.0454 36.8448 97.927 36.8448H113.079C115.495 36.8448 117.534 38.3698 118.302 40.4803H103.805C101.759 40.4803 100.095 42.1107 100.095 44.1151L100.095 44.1153ZM75.8344 55.0213H74.1282V44.1153H92.6768L92.6784 55.0213H75.8344ZM103.806 44.1153H122.354L122.356 55.0213H103.806L103.806 44.1153ZM126.064 55.0213V47.7508C128.11 47.7508 129.774 49.3812 129.774 51.3864C129.774 53.3909 128.11 55.0211 126.064 55.0211V55.0213ZM67.4436 38.7116C66.9559 37.277 66.7096 35.7834 66.7096 34.2711C66.7096 28.0312 70.9851 22.4782 77.1058 20.7647L78.9179 20.2577L79.2869 19.8049C83.6474 14.4626 90.1539 11.3986 97.1335 11.3986H107.689C119.867 11.3986 129.773 21.1059 129.773 33.0377C129.773 35.3676 129.391 37.6707 128.64 39.8829L127.163 44.2252C126.802 44.1726 126.44 44.116 126.064 44.116C126.064 42.1115 124.4 40.4804 122.354 40.4804H122.166C121.304 36.3378 117.558 33.2099 113.079 33.2099H97.9271C91.9044 33.2099 86.2378 30.0672 83.1368 25.0033L79.9554 26.8734C80.9092 28.429 82.0644 29.8321 83.3719 31.0663L80.8546 31.7746C76.9056 32.8814 74.1477 36.4604 74.1309 40.4813H74.1293C72.0837 40.4813 70.4193 42.1117 70.4193 44.1169C70.0431 44.1169 69.6813 44.1735 69.3211 44.2261L67.4436 38.7116ZM66.7096 51.3856C66.7096 49.3811 68.3733 47.75 70.4196 47.75V55.0205C68.3733 55.0213 66.7096 53.391 66.7096 51.3858V51.3856ZM85.2574 112.821C86.2849 113.052 87.3495 113.185 88.4476 113.185H88.9674V116.82H85.2574L85.2574 112.821ZM103.806 116.819H92.6767V113.184H100.096C101.454 113.184 102.71 112.799 103.806 112.173V116.819ZM103.806 99.6544C102.709 99.0287 101.454 98.6435 100.096 98.6435H92.6767V95.0079H103.806V99.6544ZM100.096 102.278C102.141 102.278 103.806 103.909 103.806 105.914C103.806 107.918 102.142 109.549 100.096 109.549H96.386V102.279L100.096 102.278ZM114.935 113.184V109.549H118.644C118.644 111.554 116.981 113.184 114.935 113.184ZM118.644 96.955V105.914H114.935V97.5784C114.935 96.4064 115.4 95.3042 116.248 94.4757L113.623 91.9053C112.076 93.4217 111.225 95.4356 111.225 97.5784L111.223 116.819H107.515V95.0072C107.515 93.0027 105.851 91.3717 103.805 91.3717H92.676C90.6305 91.3717 88.966 93.002 88.966 95.0072V98.7152C87.0721 98.8881 85.3066 99.6569 83.9428 100.992L86.5675 103.563C87.4146 102.734 88.5384 102.278 89.7353 102.278H92.6768V109.548H88.4477C82.5975 109.548 77.8382 104.887 77.8382 99.1513C77.8382 92.4391 82.2638 86.4458 88.6909 84.2865L90.4155 85.4138C92.7401 86.9357 95.4459 87.7367 98.2414 87.7367C101.037 87.7367 103.743 86.9349 106.066 85.4154L107.916 84.2088C114.074 85.3887 118.645 90.749 118.645 96.9543L118.644 96.955ZM105.308 81.543L104.01 82.392C100.584 84.6316 95.9007 84.6316 92.4745 82.392L91.1742 81.543L91.82 79.647C93.8824 80.1705 96.0306 80.4669 98.2414 80.4669C100.452 80.4669 102.601 80.1705 104.663 79.647L105.308 81.543ZM98.2414 76.832C87.3945 76.832 78.1021 69.02 76.2437 58.6555H92.6769C94.7224 58.6555 96.3868 57.0251 96.3868 55.0199V47.7494H100.097V55.0199C100.097 57.0244 101.76 58.6555 103.807 58.6555H120.244C118.414 68.987 109.108 76.832 98.2422 76.832H98.2414ZM122.354 80.4668C122.354 78.4623 124.018 76.8312 126.064 76.8312V84.1017C124.018 84.1025 122.354 82.4722 122.354 80.467V80.4668ZM129.774 110.775C129.774 108.469 131.081 106.398 133.184 105.368L137.599 103.204C138.595 103.744 139.647 104.193 140.729 104.578L141.936 107.732H139.816C137.628 107.732 135.572 108.566 134.025 110.083L136.65 112.653C137.495 111.824 138.619 111.368 139.816 111.368H140.903V116.821H135.943C132.541 116.82 129.774 114.109 129.774 110.775V110.775ZM144.612 116.82V111.367H145.539C147.073 111.367 148.321 112.59 148.321 114.093C148.322 115.597 147.074 116.82 145.539 116.82H144.612ZM163.462 105.368C165.562 106.398 166.87 108.469 166.87 110.775C166.87 114.109 164.103 116.82 160.701 116.82H151.381C151.785 115.992 152.031 115.073 152.031 114.094C152.031 113.115 151.784 112.196 151.38 111.368H156.828C158.024 111.368 159.148 111.824 159.994 112.653L162.618 110.083C161.072 108.567 159.017 107.732 156.828 107.732H145.898L145.106 105.66C146.159 105.811 147.228 105.915 148.322 105.915C152.209 105.915 155.862 104.927 159.046 103.204L163.462 105.368ZM166.87 84.103C166.87 94.1256 158.549 102.28 148.321 102.28C146.676 102.28 145.09 102.048 143.571 101.652L140.783 94.3692L137.309 95.6474L138.864 99.7114C133.433 96.5373 129.774 90.7374 129.774 84.103V71.3418C129.774 69.8844 130.657 68.5731 132.021 67.9994L138.352 65.3401C141.309 67.0592 144.67 68.0938 148.188 68.3083L163.392 69.2406C165.342 69.3585 166.87 70.9527 166.87 72.8661L166.87 84.103ZM170.58 84.103V76.8324C172.626 76.8324 174.29 78.4628 174.29 80.468C174.289 82.4725 172.625 84.1028 170.58 84.1028V84.103ZM170.58 73.1969V72.866C170.58 69.0362 167.525 65.8478 163.624 65.6095L148.42 64.6772C143.082 64.3502 138.18 61.7601 134.969 57.5647L132 59.7469C132.864 60.8797 133.833 61.9118 134.886 62.8401L130.561 64.6576C127.83 65.8045 126.064 68.4275 126.064 71.3409V73.1968C125.532 73.1968 125.014 73.2566 124.514 73.3619L123.175 70.7372C122.638 69.6869 122.354 68.5111 122.354 67.335C122.354 64.7849 123.647 62.418 125.813 61.0039L127.69 59.7768L127.865 59.0953C127.931 58.8351 128.041 58.5883 128.13 58.3336C130.79 57.5718 132.838 55.4148 133.347 52.706C134.121 52.3609 134.922 52.0826 135.767 51.9458L139.939 51.2643L140.36 50.8516C142.401 48.8518 145.117 47.7505 148.005 47.7505H148.641C151.528 47.7505 154.244 48.8518 156.286 50.8532L156.707 51.2659L160.881 51.9474C164.734 52.5763 167.836 55.3826 168.785 59.0976L168.959 59.7791L170.836 61.0062C172.997 62.4188 174.289 64.7849 174.289 67.3349C174.289 68.5093 174.005 69.687 173.469 70.7379L172.13 73.3626C171.63 73.2573 171.112 73.1967 170.58 73.1967L170.58 73.1969Z" fill="#F96C6C"/>
<path d="M172.434 11.3989H142.756C139.688 11.3989 137.191 13.8452 137.191 16.8521V31.3932C137.191 34.3993 139.687 36.8464 142.756 36.8464H152.436L153.49 40.978C153.963 42.8253 155.651 44.1161 157.594 44.1161C159.538 44.1161 161.226 42.8254 161.699 40.975L162.753 36.8456H172.433C175.5 36.8456 177.997 34.3993 177.997 31.3924V16.8513C177.997 13.8452 175.501 11.3989 172.433 11.3989H172.434ZM174.288 31.3924C174.288 32.3955 173.456 33.2098 172.434 33.2098H159.856L158.1 40.0936C157.983 40.548 157.205 40.5464 157.089 40.0952L155.335 33.2106H142.757C141.735 33.2106 140.902 32.3962 140.902 31.3932V16.8513C140.902 15.8482 141.735 15.0338 142.757 15.0338H172.435C173.457 15.0338 174.289 15.8482 174.289 16.8513L174.288 31.3924Z" fill="#F96C6C"/>
<path d="M144.612 18.6697H152.031V22.305H144.612V18.6697Z" fill="#F96C6C"/>
<path d="M155.741 18.6697H170.579V22.305H155.741V18.6697Z" fill="#F96C6C"/>
<path d="M144.612 25.9404H170.579V29.5758H144.612V25.9404Z" fill="#F96C6C"/>
</svg>
