<svg width="170" height="141" viewBox="0 0 170 141" fill="none" xmlns="http://www.w3.org/2000/svg">
<path d="M6.04434 70.2878C5.01277 69.5675 4.01697 68.8313 3.05848 68.0826L0.435941 70.5824C1.45331 71.3766 2.50644 72.1549 3.60108 72.9196L6.04434 70.2878Z" fill="black" fill-opacity="0.3"/>
<path d="M148.167 70.0872C146.008 71.1167 143.793 72.1222 141.582 73.0737L143.48 76.1638C145.737 75.1908 148.001 74.1642 150.207 73.1106L148.167 70.0872ZM134.851 75.8195C132.591 76.6915 130.278 77.5289 127.982 78.3113L129.574 81.517C131.924 80.7174 134.287 79.859 136.6 78.9679L134.851 75.8195ZM120.985 80.532C118.637 81.2251 116.241 81.8798 113.869 82.4745L115.117 85.781C117.55 85.1708 120.004 84.5027 122.411 83.7912L120.985 80.532ZM106.642 84.1244C104.233 84.6216 101.769 85.0735 99.3225 85.4645L100.195 88.847C102.706 88.4444 105.233 87.9816 107.709 87.4722L106.642 84.1244ZM91.9208 86.4816C89.4527 86.7667 86.9406 86.9962 84.4581 87.1663L84.9223 90.5938C87.4761 90.4199 90.0577 90.183 92.5953 89.8919L91.9208 86.4816ZM76.9531 87.5043C74.4351 87.559 71.9017 87.553 69.4232 87.4845L69.4476 90.9223C72.001 90.9905 74.6101 90.9974 77.1998 90.9415L76.9531 87.5043ZM61.8925 87.0956C59.3931 86.9054 56.8705 86.6458 54.3944 86.326L53.9422 89.7261C56.4995 90.0583 59.1028 90.3247 61.6857 90.5244L61.8925 87.0956ZM46.9542 85.1579C44.4763 84.7008 42.0017 84.169 39.6046 83.5846L38.642 86.8907C41.1258 87.4995 43.6862 88.047 46.2526 88.5211L46.9542 85.1579ZM32.3855 81.5877C29.9938 80.8471 27.6248 80.0282 25.3456 79.1548L23.8286 82.2883C26.2001 83.1978 28.6653 84.0515 31.155 84.8212L32.3855 81.5877ZM18.5382 76.2651C16.292 75.2142 14.1057 74.082 12.0388 72.905L9.91304 75.7507C12.0803 76.9863 14.3714 78.1722 16.7267 79.2741L18.5382 76.2651Z" fill="black" fill-opacity="0.3"/>
<path d="M158.08 63.8838C156.977 64.4857 155.876 65.0768 154.776 65.6536L156.94 68.5988C158.063 68.0103 159.187 67.4118 160.309 66.7945L158.08 63.8838Z" fill="black" fill-opacity="0.3"/>
<path d="M162.753 63.0905L140.31 61.2035L140.02 65.2909L155.859 66.6253L150.233 78.5384L154.669 80.2039L162.753 63.0905Z" fill="black" fill-opacity="0.3"/>
</svg>
