<svg width="206" height="161" viewBox="0 0 206 161" fill="none" xmlns="http://www.w3.org/2000/svg">
<path d="M103.128 65.146C100.951 65.1521 98.815 64.571 96.9664 63.4701C96.0083 62.8925 95.7185 61.6819 96.3191 60.7628C96.9188 59.8437 98.1832 59.5636 99.1441 60.136C100.348 60.8277 101.725 61.1929 103.128 61.1929C104.532 61.1929 105.909 60.8277 107.112 60.136C107.575 59.8595 108.132 59.7691 108.664 59.8858C109.195 60.0026 109.655 60.3168 109.945 60.7593C110.234 61.2017 110.327 61.7355 110.204 62.2446C110.082 62.7529 109.753 63.1936 109.291 63.4701C107.442 64.5709 105.306 65.1521 103.128 65.1459L103.128 65.146ZM163.918 76.9839C163.379 77.5536 162.674 77.9557 161.894 78.1374C161.115 78.32 160.295 78.2743 159.543 78.0066L154.12 76.1192L148.771 90.1869V90.1861C149.745 91.7048 150.264 93.4498 150.274 95.232C150.27 97.8384 149.187 100.338 147.262 102.181C145.337 104.024 142.726 105.061 140.004 105.064C139.458 105.053 138.914 105.001 138.377 104.907L122.479 114.597C122.08 117.159 120.633 119.465 118.457 121.007C116.282 122.549 113.556 123.2 110.878 122.818C108.201 122.435 105.793 121.05 104.183 118.966H87.1802C86.0203 120.475 84.4293 121.631 82.5991 122.295C80.768 122.959 78.7764 123.101 76.8635 122.705L65.5129 132.355C65.1589 135.092 63.6231 137.561 61.2794 139.164C58.9357 140.767 55.9979 141.356 53.1791 140.79C50.3604 140.223 47.9187 138.551 46.4469 136.181C44.9743 133.812 44.6066 130.96 45.4319 128.318C46.2571 125.676 48.2011 123.486 50.7914 122.279C53.3807 121.073 56.3802 120.961 59.0611 121.969L68.7679 113.503C68.7615 113.364 68.7248 113.233 68.7248 113.092V113.093C68.7386 112.108 68.91 111.133 69.231 110.198V89.9812C69.2429 88.0297 69.904 86.1326 71.1189 84.5665C72.3348 82.9995 74.0402 81.8452 75.9888 81.2701L90.0382 77.2582L93.8994 76.1574H93.8985C95.1079 75.8142 95.9359 74.7493 95.9322 73.5422V71.7356C89.8988 69.5163 85.3738 64.6206 83.8086 58.6169C83.5977 58.6353 83.395 58.6757 83.1777 58.6757C80.8707 58.6836 78.7086 57.6029 77.3964 55.7868C76.0842 53.9706 75.7899 51.6528 76.6115 49.5891C77.4322 47.5253 79.2614 45.9811 81.5034 45.4606L81.4841 45.35L81.4832 45.3324L81.4841 45.3315C80.5122 39.5499 82.1058 33.6419 85.8817 29.0349C89.6577 24.427 95.2721 21.5397 101.37 21.0684C107.466 20.5961 113.493 22.5845 117.992 26.5523C122.491 30.5193 125.055 36.1061 125.064 41.9621C125.065 43.0876 124.967 44.2113 124.773 45.3208C124.772 45.3304 124.774 45.3392 124.772 45.3488L124.76 45.4235V45.4243C127.02 45.9168 128.879 47.4469 129.727 49.5118C130.575 51.5765 130.302 53.9088 128.997 55.7429C127.693 57.5767 125.526 58.6749 123.208 58.6758C122.955 58.6653 122.702 58.6399 122.452 58.6012C120.889 64.6173 116.356 69.5227 110.31 71.741V73.5424C110.307 74.7556 111.145 75.823 112.363 76.1576L116.225 77.2584L130.253 81.2703C132.85 82.0402 134.98 83.8336 136.108 86.2012C136.513 86.0335 136.929 85.8904 137.353 85.7737L142.556 72.0871L137.113 70.1997C136.105 69.8415 135.286 69.1164 134.835 68.1815C134.384 67.2465 134.338 66.1791 134.707 65.2126C135.077 64.2452 135.83 63.4577 136.805 63.0223L152.107 56.1988C153.078 55.7519 154.198 55.7019 155.208 56.061C156.214 56.4174 157.033 57.1372 157.489 58.0669L164.616 72.7166C164.959 73.4128 165.076 74.1923 164.952 74.9534C164.828 75.7136 164.466 76.4212 163.917 76.9839L163.918 76.9839ZM61.5354 131.119C61.5354 129.555 60.8862 128.054 59.7309 126.948C58.5746 125.842 57.0075 125.22 55.3737 125.22C53.7388 125.22 52.1717 125.842 51.0165 126.948C49.8612 128.054 49.212 129.555 49.212 131.119C49.212 132.684 49.8612 134.185 51.0165 135.291C52.1719 136.397 53.739 137.019 55.3737 137.019C57.0068 137.017 58.5739 136.394 59.7283 135.289C60.8836 134.183 61.5337 132.684 61.5356 131.119L61.5354 131.119ZM124.1 49.3285L123.184 54.7395L123.209 54.7439H123.208C124.634 54.7431 125.847 53.7493 126.069 52.4C126.291 51.0516 125.456 49.7488 124.1 49.3284L124.1 49.3285ZM83.0724 54.7344L82.1637 49.3644C80.8589 49.8191 80.0759 51.0973 80.2978 52.4089C80.5197 53.7212 81.6842 54.6975 83.0724 54.7344H83.0724ZM103.129 69.0821C106.89 69.0944 110.532 67.818 113.396 65.4846C116.261 63.1503 118.159 59.9129 118.748 56.3558L120.265 47.3911C117.458 45.4642 115.018 43.0913 113.048 40.3752C106.61 42.4329 99.6478 42.4329 93.2099 40.3752C91.2413 43.0922 88.7995 45.4649 85.9927 47.3911L87.5093 56.3558C88.098 59.912 89.9961 63.1503 92.8606 65.4837C95.7251 67.818 99.3673 69.0943 103.128 69.0821H103.129ZM95.2336 79.8946C100.319 81.7557 105.943 81.7557 111.029 79.8946C109.626 79.461 108.403 78.613 107.535 77.4709C106.668 76.3297 106.201 74.955 106.202 73.5433V72.7751C104.162 73.0947 102.08 73.0947 100.04 72.7734V73.5433C100.044 74.9522 99.5808 76.327 98.717 77.4682C97.8533 78.6094 96.6337 79.4592 95.2335 79.8946H95.2336ZM72.7962 120.881C71.6445 120.036 70.6927 118.967 70.0033 117.745L62.6347 124.174C63.6387 125.147 64.42 126.309 64.9298 127.586L72.7962 120.881ZM85.1564 113.095C85.1564 111.53 84.5072 110.029 83.3519 108.923C82.1956 107.817 80.6285 107.196 78.9947 107.196C77.3598 107.196 75.7927 107.817 74.6375 108.923C73.4822 110.029 72.833 111.531 72.833 113.095C72.833 114.659 73.4822 116.159 74.6375 117.266C75.7929 118.372 77.36 118.994 78.9947 118.994C80.6278 118.992 82.1949 118.37 83.3493 117.264C84.5046 116.158 85.1547 114.659 85.1566 113.094L85.1564 113.095ZM102.099 113.095H102.098C102.099 112.426 102.17 111.758 102.311 111.103H89.0507C89.3322 112.399 89.335 113.737 89.059 115.036H102.303C102.168 114.396 102.099 113.746 102.098 113.095H102.099ZM118.53 113.095H118.529C118.529 111.53 117.88 110.029 116.725 108.923C115.569 107.817 114.002 107.196 112.368 107.196C110.734 107.196 109.167 107.817 108.011 108.923C106.855 110.029 106.206 111.531 106.206 113.095C106.206 114.659 106.855 116.159 108.011 117.266C109.167 118.372 110.734 118.994 112.368 118.994C114.002 118.992 115.568 118.37 116.723 117.264C117.878 116.158 118.529 114.659 118.53 113.094L118.53 113.095ZM133.812 103.026C132.7 102.211 131.774 101.188 131.089 100.02L119.918 106.484H119.918C120.923 107.541 121.675 108.798 122.119 110.163L133.812 103.026ZM146.166 95.2337C146.166 93.6693 145.517 92.1681 144.361 91.0622C143.205 89.9561 141.638 89.3346 140.004 89.3346C138.37 89.3346 136.802 89.9561 135.647 91.0622C134.492 92.1683 133.843 93.6695 133.843 95.2337C133.843 96.7978 134.492 98.2992 135.647 99.4051C136.802 100.511 138.37 101.133 140.004 101.133C141.637 101.131 143.204 100.509 144.359 99.4034C145.514 98.2973 146.164 96.7978 146.166 95.2335L146.166 95.2337ZM160.837 74.2723L153.771 59.7403L138.53 66.6033L145.883 69.0614H145.884C146.949 69.4319 147.5 70.5573 147.117 71.5782L141.79 85.5747C143.165 85.8029 144.475 86.299 145.641 87.0311L150.978 72.9344C151.162 72.4436 151.543 72.0433 152.036 71.8221C152.529 71.6009 153.095 71.5763 153.607 71.7545L160.837 74.2723Z" fill="#599DFF"/>
<path fill-rule="evenodd" clip-rule="evenodd" d="M69.0807 2.03162C90.5843 2.47114 110.264 11.7141 125.691 28.5887C144.645 49.3209 167.991 74.3343 161.57 103.198C155.197 131.845 123.494 138.913 98.8813 149.11C78.3819 157.603 55.8296 166.981 36.8091 154.888C18.6816 143.363 17.0367 116.847 12.2534 94.032C7.39699 70.8683 -2.23576 45.7594 9.83307 26.2206C22.4534 5.78894 46.9828 1.57995 69.0807 2.03162Z" fill="#599DFF" fill-opacity="0.1"/>
<path fill-rule="evenodd" clip-rule="evenodd" d="M112.081 2.03162C133.584 2.47114 153.264 11.7141 168.691 28.5887C187.645 49.3209 210.991 74.3343 204.57 103.198C198.197 131.845 166.494 138.913 141.881 149.11C121.382 157.603 98.8296 166.981 79.8091 154.888C61.6816 143.363 60.0367 116.847 55.2534 94.032C50.397 70.8683 40.7642 45.7594 52.8331 26.2206C65.4534 5.78894 89.9828 1.57995 112.081 2.03162Z" fill="#599DFF" fill-opacity="0.1"/>
</svg>
