<svg width="233" height="148" viewBox="0 0 233 148" fill="none" xmlns="http://www.w3.org/2000/svg">
<g clip-path="url(#clip0_42_472)">
<path d="M157.69 29H76.3537C72.3017 29 69 32.2706 69 36.2852V89.6632C69 93.38 72.0012 96.6513 75.7534 96.7999H105.316V104.828H95.8624C92.5607 104.828 90.01 107.505 90.01 110.627C90.01 113.898 92.7112 116.425 95.8624 116.425H138.181C141.483 116.425 144.033 113.749 144.033 110.627C144.033 107.356 141.332 104.828 138.181 104.828H128.877V96.7999H157.84C161.892 96.7999 165.193 93.5286 165.193 89.5147L165.193 36.2857C165.043 32.2711 161.741 29.0005 157.689 29.0005L157.69 29ZM76.3537 31.9735H157.841C160.241 31.9735 162.192 33.9065 162.192 36.2852V84.0119H103.816L103.517 72.5635C103.517 71.523 103.816 70.6305 104.567 69.8871C105.317 69.1438 106.217 68.8467 107.268 68.8467C109.369 68.8467 111.62 68.1033 113.27 66.9137L126.026 57.2492C126.626 56.8029 126.776 55.911 126.326 55.1676L125.576 54.1271L139.382 45.0574C140.132 44.6111 140.282 43.7192 139.832 42.9758C139.683 42.6787 139.382 42.5295 139.082 42.3809H154.689C155.589 42.3809 156.19 41.7861 156.19 40.8942C156.19 40.0023 155.589 39.4074 154.689 39.4074H114.171C113.271 39.4074 112.671 40.0023 112.671 40.8942C112.671 41.7861 113.271 42.3809 114.171 42.3809H138.032C137.882 42.3809 137.882 42.3809 137.732 42.5295L123.776 51.7477L123.025 50.7072C122.575 50.1124 121.675 49.8153 120.924 50.2609L105.017 60.2226H94.2124C93.612 60.2226 93.0116 60.6689 92.8617 61.2631L90.9107 66.6159H90.3103L88.3593 61.2631C88.2094 60.6682 87.609 60.2226 87.0087 60.2226C81.9065 60.2226 77.8545 64.2372 77.8545 69.2924V84.012H72.002V36.2853C72.002 33.9067 73.953 31.9737 76.3545 31.9737L76.3537 31.9735ZM85.8076 77.7674C84.9074 77.7674 84.3071 78.3622 84.3071 79.2542V84.0121H80.8554V69.2925C80.8554 66.3189 83.1063 63.791 85.9576 63.3454L87.9086 68.6982C88.0585 69.2931 88.6589 69.7387 89.2592 69.7387H92.1105C92.7108 69.7387 93.3112 69.2924 93.4611 68.6982L95.4121 63.3454H105.616C105.916 63.3454 106.217 63.1968 106.367 63.0483L121.523 53.3831C121.673 53.5316 123.174 55.7617 123.024 55.6133L111.318 64.3859C110.117 65.2778 108.617 65.7241 107.116 65.7241C105.315 65.7241 103.664 66.4675 102.314 67.6571C100.963 68.9953 100.363 70.6306 100.363 72.5636L100.663 84.012H87.0068V79.2541C87.308 78.3622 86.5577 77.7673 85.8074 77.7673L85.8076 77.7674ZM141.032 110.627C141.032 112.263 139.681 113.452 138.181 113.452H95.8622C94.2117 113.452 93.011 112.114 93.011 110.627C93.011 109.141 94.3617 107.802 95.8622 107.802H138.181C139.831 107.802 141.032 108.992 141.032 110.627ZM125.876 104.829H108.168V96.8003H125.726V104.829H125.876ZM157.69 93.826H75.9023C73.8021 93.6775 72.0009 91.7444 72.0009 89.5144V86.9865H162.041V89.5144C162.042 91.893 160.091 93.826 157.689 93.826H157.69Z" fill="#FF4F4F"/>
<path d="M154.689 49.0718H135.63C134.73 49.0718 134.129 49.6666 134.129 50.5585C134.129 51.4504 134.73 52.0453 135.63 52.0453H154.689C155.589 52.0453 156.19 51.4505 156.19 50.5585C156.19 49.6666 155.59 49.0718 154.689 49.0718Z" fill="#FF4F4F"/>
<path d="M154.689 58.7359H128.277C127.377 58.7359 126.777 59.3307 126.777 60.2227C126.777 61.1146 127.377 61.7094 128.277 61.7094H154.839C155.739 61.7094 156.34 61.1146 156.34 60.2227C156.189 59.3307 155.589 58.7359 154.688 58.7359H154.689Z" fill="#FF4F4F"/>
<path d="M154.689 68.2528H116.571C115.671 68.2528 115.07 68.8476 115.07 69.7396C115.07 70.6315 115.671 71.2263 116.571 71.2263H154.689C155.589 71.2263 156.189 70.6315 156.189 69.7396C156.189 68.847 155.59 68.2528 154.689 68.2528Z" fill="#FF4F4F"/>
<path d="M90.761 57.546C95.1128 57.546 98.5645 54.1262 98.5645 49.8146C98.5645 45.5029 95.1128 42.0831 90.761 42.0831C86.4092 42.0831 82.9575 45.5029 82.9575 49.8146C82.9575 53.9778 86.4092 57.546 90.761 57.546ZM90.761 44.908C93.4622 44.908 95.5632 46.9896 95.5632 49.666C95.5632 52.3423 93.4622 54.4239 90.761 54.4239C88.0597 54.4239 85.9587 52.3423 85.9587 49.666C85.9587 47.1387 88.0597 44.908 90.761 44.908V44.908Z" fill="#FF4F4F"/>
<path fill-rule="evenodd" clip-rule="evenodd" d="M93.7636 0.0828918C121.385 -0.790207 150.351 5.10587 167.708 23.8697C185.164 42.7392 185.617 68.7321 179.065 92.2958C172.64 115.398 159.722 140.924 133.424 147.156C109.222 152.891 92.5711 127.889 70.1386 118.107C48.5334 108.686 17.358 111.793 7.88123 92.4115C-2.53563 71.1075 9.51705 46.3262 26.2463 28.3413C42.7942 10.5513 67.5184 0.912495 93.7636 0.0828918Z" fill="#FF4F4F" fill-opacity="0.1"/>
<path fill-rule="evenodd" clip-rule="evenodd" d="M122.784 0.0828918C150.405 -0.790207 179.371 5.10587 196.729 23.8697C214.184 42.7392 214.637 68.7321 208.085 92.2958C201.66 115.398 188.742 140.924 162.444 147.156C138.242 152.891 121.591 127.889 99.1586 118.107C77.5534 108.686 46.378 111.793 36.9013 92.4115C26.4844 71.1075 38.5371 46.3262 55.2663 28.3413C71.8143 10.5513 96.5384 0.912495 122.784 0.0828918Z" fill="#FF4F4F" fill-opacity="0.1"/>
</g>
<defs>
<clipPath id="clip0_42_472">
<rect width="233" height="148" fill="white"/>
</clipPath>
</defs>
</svg>
