<svg width="245" height="245" viewBox="0 0 245 245" fill="none" xmlns="http://www.w3.org/2000/svg">
<g clip-path="url(#clip0_220_187)">
<rect width="245" height="245" fill="white"/>
<path d="M242.803 145.036C240.599 141.278 237.002 138.539 232.793 137.411C228.585 136.285 224.103 136.86 220.315 139.013L185.195 159.273C184.431 157.456 183.331 155.799 181.951 154.39C178.876 151.289 174.686 149.551 170.32 149.562H108.598C107.898 149.562 107.209 149.74 106.597 150.08L79.3823 165.222L74.7936 152.622V152.624C74.4225 151.597 73.6583 150.76 72.6701 150.297C71.6817 149.834 70.5502 149.783 69.5233 150.155L30.844 164.229V164.227C29.8171 164.6 28.9795 165.364 28.5147 166.354C28.0518 167.342 28.0022 168.476 28.3751 169.503L29.7822 173.366L2.71426 183.241C1.68739 183.614 0.851586 184.378 0.388657 185.367C-0.074263 186.355 -0.125718 187.486 0.245373 188.513L19.9688 242.636C20.3398 243.663 21.104 244.501 22.0941 244.964C23.0824 245.426 24.2158 245.478 25.2427 245.105L52.314 235.25L53.7211 239.118V239.116C54.094 240.143 54.8564 240.981 55.8465 241.444C56.8348 241.907 57.9663 241.958 58.9932 241.585L97.6725 227.512V227.514C98.6994 227.141 99.5352 226.377 99.9981 225.389C100.461 224.4 100.512 223.269 100.141 222.242L99.1329 219.514H145.63C146.352 219.514 147.061 219.323 147.688 218.963L236.77 167.525C239.285 166.094 241.374 164.019 242.821 161.511C244.267 159.004 245.018 156.156 245 153.263C244.998 150.375 244.241 147.537 242.803 145.034L242.803 145.036ZM26.3022 235.976L9.43147 189.558L32.6306 181.109L49.5216 227.511L26.3022 235.976ZM60.0438 232.455L37.5317 170.549L68.4624 159.287L90.9783 221.159L60.0438 232.455ZM232.659 160.405L144.527 211.288H96.1366L82.2252 173.061L109.662 157.795H170.317C172.499 157.79 174.594 158.661 176.131 160.211C177.02 161.096 177.685 162.184 178.069 163.38C178.4 164.221 178.561 165.121 178.547 166.025C178.547 168.207 177.68 170.301 176.137 171.845C174.594 173.388 172.499 174.255 170.317 174.255H125.054V182.484H170.317C174.333 182.471 178.203 180.989 181.199 178.316C184.196 175.643 186.109 171.968 186.578 167.98L224.406 146.147H224.407C226.953 144.676 230.089 144.676 232.635 146.145C235.181 147.615 236.75 150.33 236.752 153.269C236.763 154.715 236.39 156.136 235.67 157.391C234.952 158.644 233.912 159.685 232.657 160.404L232.659 160.405Z" fill="#03C29E"/>
<path d="M36.7609 55.3755C35.0728 56.2444 34.1983 58.1567 34.6466 60.0028C35.0929 61.849 36.7462 63.1477 38.6456 63.1477H51.0968C48.1834 66.9154 46.6936 71.5923 46.8939 76.35C47.0922 81.1095 48.9659 85.6452 52.1843 89.1572C46.0784 91.3707 41.3809 96.3433 39.5182 102.565C37.6537 108.787 38.844 115.522 42.7274 120.727C46.6089 125.933 52.7262 128.996 59.2196 128.985H223.812C225.693 128.978 227.327 127.69 227.771 125.862C228.223 124.025 227.378 122.115 225.714 121.216C223.662 119.811 222.021 117.882 220.963 115.632C219.907 113.38 219.47 110.887 219.697 108.411C219.343 103.674 221.329 99.0626 225.014 96.0665H232.042C233.923 96.0592 235.556 94.7715 236.001 92.9437C236.452 91.1067 235.607 89.1962 233.943 88.298C231.891 86.8927 230.251 84.9639 229.193 82.7136C228.136 80.4614 227.699 77.9686 227.927 75.4927C227.703 73.0293 228.136 70.5511 229.183 68.3117C230.229 66.0706 231.851 64.1473 233.881 62.7367C235.615 61.8972 236.535 59.9666 236.094 58.091C235.651 56.2155 233.969 54.8965 232.042 54.9186H219.59C222.313 51.3787 223.797 47.0397 223.812 42.5741C223.804 37.12 221.635 31.8901 217.779 28.0326C213.922 24.1768 208.692 22.0075 203.238 22H38.6449C36.7639 22.0073 35.1308 23.2951 34.6862 25.1228C34.2343 26.9598 35.0794 28.8703 36.7436 29.7685C38.7956 31.1738 40.436 33.1026 41.4943 35.3529C42.5505 37.6051 42.9877 40.0979 42.7599 42.5739C42.9859 45.0483 42.5505 47.5375 41.4961 49.7877C40.4417 52.038 38.8068 53.9668 36.7605 55.3759L36.7609 55.3755ZM75.6791 120.756H71.5643V96.0676H75.6791V120.756ZM83.9088 87.8379H79.7939V63.149H83.9088V87.8379ZM71.5643 87.8379H67.4495C63.0389 87.8379 58.9645 85.4848 56.7585 81.6657C54.5541 77.8466 54.5541 73.1403 56.7585 69.3212C58.9647 65.5022 63.0389 63.149 67.4495 63.149H71.5643V87.8379ZM46.8754 108.412C46.8754 105.139 48.1759 101.997 50.4905 99.683C52.8051 97.3688 55.9466 96.0678 59.2196 96.0678H63.3344V120.757H59.2196C55.9461 120.757 52.8047 119.456 50.4905 117.142C48.1764 114.827 46.8754 111.686 46.8754 108.412V108.412ZM214.431 120.756H83.9088V112.527H203.239V104.297H83.9088V96.0676H214.431C210.48 103.823 210.48 113.001 214.431 120.756ZM222.66 87.8379H92.1384V79.6083H211.468V71.3786H92.1384V63.149H222.66C220.634 66.9423 219.613 71.1929 219.697 75.4935C219.613 79.7938 220.634 84.0448 222.66 87.8379ZM186.779 30.2304H190.894V54.9194H186.779V30.2304ZM215.583 42.5749C215.583 45.8484 214.282 48.9898 211.967 51.304C209.653 53.6181 206.511 54.9191 203.238 54.9191H199.123V30.2302H203.238C206.512 30.2302 209.653 31.5308 211.967 33.8454C214.282 36.16 215.583 39.3014 215.583 42.5744V42.5749ZM48.0271 30.2304H178.549V38.4601H59.2194V46.6897H178.549V54.9194H48.0271C50.0532 51.126 51.0746 46.8755 50.9901 42.5749C51.0746 38.2746 50.0532 34.0236 48.0271 30.2304Z" fill="#03C29E"/>
</g>
<defs>
<clipPath id="clip0_220_187">
<rect width="245" height="245" fill="white"/>
</clipPath>
</defs>
</svg>
