<svg width="845" height="645" viewBox="0 0 845 645" fill="none" xmlns="http://www.w3.org/2000/svg">
<g clip-path="url(#clip0_219_65)">
<path fill-rule="evenodd" clip-rule="evenodd" d="M726.635 51.5029C753.447 55.5267 782.031 61.9794 797.79 84.0415C812.133 104.122 804.009 130.741 800.704 155.196C798.024 175.022 793.87 194.221 780.845 209.406C766.627 225.984 747.67 235.682 726.635 241.553C694.363 250.561 657.397 271.292 630.445 251.386C603.018 231.128 609.73 189.293 609.713 155.196C609.697 121.074 604.823 81.5541 630.352 58.9136C655.388 36.7105 693.543 46.5366 726.635 51.5029Z" fill="#03C29E" fill-opacity="0.1"/>
<path fill-rule="evenodd" clip-rule="evenodd" d="M726.635 51.5029C753.447 55.5267 782.031 61.9794 797.79 84.0415C812.133 104.122 804.009 130.741 800.704 155.196C798.024 175.022 793.87 194.221 780.845 209.406C766.627 225.984 747.67 235.682 726.635 241.553C694.363 250.561 657.397 271.292 630.445 251.386C603.018 231.128 609.73 189.293 609.713 155.196C609.697 121.074 604.823 81.5541 630.352 58.9136C655.388 36.7105 693.543 46.5366 726.635 51.5029Z" fill="#03C29E" fill-opacity="0.1"/>
<path fill-rule="evenodd" clip-rule="evenodd" d="M758.635 51.5029C785.447 55.5267 814.031 61.9794 829.79 84.0415C844.133 104.122 836.009 130.741 832.704 155.196C830.024 175.022 825.87 194.221 812.845 209.406C798.627 225.984 779.67 235.682 758.635 241.553C726.363 250.561 689.397 271.292 662.445 251.386C635.018 231.128 641.73 189.293 641.713 155.196C641.697 121.074 636.823 81.5541 662.352 58.9136C687.388 36.7105 725.543 46.5366 758.635 51.5029Z" fill="#03C29E" fill-opacity="0.08"/>
<path fill-rule="evenodd" clip-rule="evenodd" d="M758.635 51.5029C785.447 55.5267 814.031 61.9794 829.79 84.0415C844.133 104.122 836.009 130.741 832.704 155.196C830.024 175.022 825.87 194.221 812.845 209.406C798.627 225.984 779.67 235.682 758.635 241.553C726.363 250.561 689.397 271.292 662.445 251.386C635.018 231.128 641.73 189.293 641.713 155.196C641.697 121.074 636.823 81.5541 662.352 58.9136C687.388 36.7105 725.543 46.5366 758.635 51.5029Z" fill="#03C29E" fill-opacity="0.08"/>
<g filter="url(#filter0_d_219_65)">
<mask id="path-3-inside-1_219_65" fill="white">
<path d="M563.382 315.277C563.382 351.64 552.335 370.523 540.632 390.523C527.886 412.312 513.437 437.003 510.128 492.783V513.982C510.128 527.259 501.39 538.529 489.366 542.357V556.939C489.366 570.677 480.01 582.263 467.339 585.681V599.896C467.339 616.31 453.987 629.662 437.573 629.662H409.702C393.288 629.662 379.936 616.31 379.936 599.896V585.681C367.264 582.263 357.909 570.677 357.909 556.939V542.771C345.151 539.412 335.714 527.779 335.714 513.982V492.783C332.401 437.006 317.956 412.31 305.21 390.523C293.515 370.531 282.46 351.648 282.46 315.277C282.46 237.824 345.472 174.817 422.92 174.817C500.369 174.813 563.38 237.825 563.38 315.277H563.382ZM299.042 315.277C299.042 315.859 299.054 316.426 299.057 317H330.377C333.604 317 336.538 318.871 337.897 321.801C339.256 324.73 338.788 328.176 336.706 330.644C333.694 334.203 332.038 338.734 332.038 343.402C332.038 354.312 340.909 363.187 351.823 363.187C362.733 363.187 371.608 354.316 371.608 343.402C371.608 338.734 369.951 334.203 366.94 330.644C364.858 328.176 364.389 324.73 365.748 321.801C367.108 318.871 370.041 317 373.268 317H414.62V289.211C411.448 290.101 408.139 290.562 404.795 290.562C384.74 290.562 368.432 274.246 368.432 254.199C368.432 234.148 384.748 217.836 404.795 217.836C408.139 217.836 411.44 218.297 414.62 219.188V191.684C350.179 195.961 299.04 249.754 299.04 315.274L299.042 315.277ZM319.522 382.144C332.62 404.527 347.381 429.761 351.741 484.204H414.632L414.628 417.833C414.628 414.607 416.499 411.673 419.429 410.314C422.358 408.954 425.804 409.423 428.273 411.505C431.831 414.517 436.362 416.173 441.031 416.173C451.941 416.173 460.816 407.302 460.816 396.388C460.816 385.478 451.944 376.603 441.031 376.603C436.363 376.603 431.831 378.259 428.269 381.271C425.8 383.353 422.354 383.822 419.425 382.462C416.495 381.103 414.624 378.169 414.624 374.943V333.591H386.835C387.726 336.763 388.187 340.071 388.187 343.415C388.187 363.47 371.871 379.778 351.824 379.778C331.773 379.778 315.461 363.462 315.461 343.415C315.461 340.071 315.921 336.771 316.812 333.591H300.203C303.004 353.9 310.515 366.751 319.523 382.146L319.522 382.144ZM450.772 599.894V586.706H396.526V599.894C396.526 607.164 402.44 613.078 409.71 613.078H437.581C444.854 613.082 450.772 607.168 450.772 599.894ZM472.799 556.937V543.749L374.494 543.745V556.933C374.494 564.203 380.408 570.117 387.682 570.117H459.608C466.881 570.121 472.799 564.207 472.799 556.937ZM493.557 513.98V500.792H352.297V513.98C352.297 521.25 358.211 527.164 365.481 527.164H480.371C487.644 527.164 493.559 521.25 493.559 513.98H493.557ZM545.643 333.59H515.471C512.244 333.59 509.311 331.719 507.951 328.789C506.592 325.86 507.061 322.414 509.143 319.946C512.154 316.387 513.811 311.856 513.811 307.188C513.811 296.278 504.94 287.403 494.026 287.403C483.116 287.403 474.241 296.274 474.241 307.188C474.241 311.856 475.897 316.387 478.909 319.946C480.991 322.414 481.46 325.86 480.1 328.789C478.741 331.719 475.807 333.59 472.581 333.59H431.229V361.379C434.401 360.489 437.709 360.028 441.053 360.028C461.108 360.028 477.416 376.344 477.416 396.391C477.416 416.446 461.1 432.754 441.053 432.754C437.709 432.754 434.408 432.293 431.229 431.402V484.211H494.12C498.479 429.77 513.249 404.527 526.339 382.151C535.339 366.756 542.851 353.905 545.644 333.589L545.643 333.59ZM546.811 315.285C546.811 249.765 495.674 195.965 431.221 191.685V232.751C431.221 235.978 429.35 238.911 426.42 240.271C425.69 240.61 424.92 240.837 424.151 240.954C423.764 241.013 423.373 241.04 422.983 241.04C421.041 241.052 419.115 240.38 417.576 239.079C414.904 236.821 411.69 235.321 408.279 234.716C407.143 234.513 405.986 234.411 404.815 234.411C393.905 234.411 385.03 243.282 385.03 254.196C385.03 265.106 393.901 273.981 404.815 273.981C409.483 273.981 414.014 272.325 417.573 269.313C419.811 267.419 422.858 266.88 425.592 267.813C425.866 267.907 426.147 268.001 426.416 268.122C428.248 268.973 429.666 270.438 430.471 272.204C430.955 273.266 431.217 274.43 431.217 275.645V316.997H459.006C458.116 313.825 457.655 310.517 457.655 307.173C457.655 287.118 473.971 270.81 494.018 270.81C514.069 270.81 530.381 287.126 530.381 307.173C530.381 310.517 529.92 313.818 529.029 316.997H546.787C546.795 316.431 546.806 315.864 546.806 315.282L546.811 315.285Z"/>
</mask>
<path d="M563.382 315.277C563.382 351.64 552.335 370.523 540.632 390.523C527.886 412.312 513.437 437.003 510.128 492.783V513.982C510.128 527.259 501.39 538.529 489.366 542.357V556.939C489.366 570.677 480.01 582.263 467.339 585.681V599.896C467.339 616.31 453.987 629.662 437.573 629.662H409.702C393.288 629.662 379.936 616.31 379.936 599.896V585.681C367.264 582.263 357.909 570.677 357.909 556.939V542.771C345.151 539.412 335.714 527.779 335.714 513.982V492.783C332.401 437.006 317.956 412.31 305.21 390.523C293.515 370.531 282.46 351.648 282.46 315.277C282.46 237.824 345.472 174.817 422.92 174.817C500.369 174.813 563.38 237.825 563.38 315.277H563.382ZM299.042 315.277C299.042 315.859 299.054 316.426 299.057 317H330.377C333.604 317 336.538 318.871 337.897 321.801C339.256 324.73 338.788 328.176 336.706 330.644C333.694 334.203 332.038 338.734 332.038 343.402C332.038 354.312 340.909 363.187 351.823 363.187C362.733 363.187 371.608 354.316 371.608 343.402C371.608 338.734 369.951 334.203 366.94 330.644C364.858 328.176 364.389 324.73 365.748 321.801C367.108 318.871 370.041 317 373.268 317H414.62V289.211C411.448 290.101 408.139 290.562 404.795 290.562C384.74 290.562 368.432 274.246 368.432 254.199C368.432 234.148 384.748 217.836 404.795 217.836C408.139 217.836 411.44 218.297 414.62 219.188V191.684C350.179 195.961 299.04 249.754 299.04 315.274L299.042 315.277ZM319.522 382.144C332.62 404.527 347.381 429.761 351.741 484.204H414.632L414.628 417.833C414.628 414.607 416.499 411.673 419.429 410.314C422.358 408.954 425.804 409.423 428.273 411.505C431.831 414.517 436.362 416.173 441.031 416.173C451.941 416.173 460.816 407.302 460.816 396.388C460.816 385.478 451.944 376.603 441.031 376.603C436.363 376.603 431.831 378.259 428.269 381.271C425.8 383.353 422.354 383.822 419.425 382.462C416.495 381.103 414.624 378.169 414.624 374.943V333.591H386.835C387.726 336.763 388.187 340.071 388.187 343.415C388.187 363.47 371.871 379.778 351.824 379.778C331.773 379.778 315.461 363.462 315.461 343.415C315.461 340.071 315.921 336.771 316.812 333.591H300.203C303.004 353.9 310.515 366.751 319.523 382.146L319.522 382.144ZM450.772 599.894V586.706H396.526V599.894C396.526 607.164 402.44 613.078 409.71 613.078H437.581C444.854 613.082 450.772 607.168 450.772 599.894ZM472.799 556.937V543.749L374.494 543.745V556.933C374.494 564.203 380.408 570.117 387.682 570.117H459.608C466.881 570.121 472.799 564.207 472.799 556.937ZM493.557 513.98V500.792H352.297V513.98C352.297 521.25 358.211 527.164 365.481 527.164H480.371C487.644 527.164 493.559 521.25 493.559 513.98H493.557ZM545.643 333.59H515.471C512.244 333.59 509.311 331.719 507.951 328.789C506.592 325.86 507.061 322.414 509.143 319.946C512.154 316.387 513.811 311.856 513.811 307.188C513.811 296.278 504.94 287.403 494.026 287.403C483.116 287.403 474.241 296.274 474.241 307.188C474.241 311.856 475.897 316.387 478.909 319.946C480.991 322.414 481.46 325.86 480.1 328.789C478.741 331.719 475.807 333.59 472.581 333.59H431.229V361.379C434.401 360.489 437.709 360.028 441.053 360.028C461.108 360.028 477.416 376.344 477.416 396.391C477.416 416.446 461.1 432.754 441.053 432.754C437.709 432.754 434.408 432.293 431.229 431.402V484.211H494.12C498.479 429.77 513.249 404.527 526.339 382.151C535.339 366.756 542.851 353.905 545.644 333.589L545.643 333.59ZM546.811 315.285C546.811 249.765 495.674 195.965 431.221 191.685V232.751C431.221 235.978 429.35 238.911 426.42 240.271C425.69 240.61 424.92 240.837 424.151 240.954C423.764 241.013 423.373 241.04 422.983 241.04C421.041 241.052 419.115 240.38 417.576 239.079C414.904 236.821 411.69 235.321 408.279 234.716C407.143 234.513 405.986 234.411 404.815 234.411C393.905 234.411 385.03 243.282 385.03 254.196C385.03 265.106 393.901 273.981 404.815 273.981C409.483 273.981 414.014 272.325 417.573 269.313C419.811 267.419 422.858 266.88 425.592 267.813C425.866 267.907 426.147 268.001 426.416 268.122C428.248 268.973 429.666 270.438 430.471 272.204C430.955 273.266 431.217 274.43 431.217 275.645V316.997H459.006C458.116 313.825 457.655 310.517 457.655 307.173C457.655 287.118 473.971 270.81 494.018 270.81C514.069 270.81 530.381 287.126 530.381 307.173C530.381 310.517 529.92 313.818 529.029 316.997H546.787C546.795 316.431 546.806 315.864 546.806 315.282L546.811 315.285Z" fill="#F9FF76" stroke="black" stroke-opacity="0.76" stroke-width="4" mask="url(#path-3-inside-1_219_65)"/>
</g>
<path fill-rule="evenodd" clip-rule="evenodd" d="M122.081 26.768C149.188 28.4367 176.906 25.2379 199.198 40.7503C225.943 59.3611 256.543 85.4781 252.996 117.867C249.5 149.802 206.74 157.094 183.978 179.765C161.312 202.34 153.657 243.129 122.081 248.258C88.9917 253.634 56.7494 230.24 36.1732 203.775C17.6073 179.896 20.9362 148.114 20.7044 117.867C20.4698 87.245 12.0687 51.1016 34.8464 30.633C57.3526 10.4083 91.8797 24.9089 122.081 26.768Z" fill="#FFA9A3" fill-opacity="0.1"/>
<path fill-rule="evenodd" clip-rule="evenodd" d="M153.606 26.2772C178.747 27.8249 204.455 24.8581 225.13 39.2455C249.936 56.5067 278.316 80.7297 275.027 110.77C271.784 140.389 232.125 147.152 211.014 168.179C189.992 189.117 182.892 226.948 153.606 231.705C122.916 236.691 93.0119 214.994 73.9278 190.448C56.7083 168.3 59.7958 138.824 59.5808 110.77C59.3632 82.3685 51.5714 48.8461 72.6972 29.8619C93.5713 11.1039 125.595 24.5529 153.606 26.2772Z" fill="#FFA9A3" fill-opacity="0.1"/>
<g filter="url(#filter1_d_219_65)">
<path d="M779.56 536.685V496.72C779.56 493.894 778.437 491.183 776.439 489.184C774.44 487.185 771.729 486.062 768.903 486.062H704.958C702.132 486.062 699.421 487.185 697.422 489.184C695.424 491.183 694.301 493.894 694.301 496.72V502.938L680.446 484.464C680.013 483.887 679.366 483.51 678.65 483.42C677.936 483.335 677.216 483.537 676.65 483.982L666.888 491.791L660.781 488.972C659.956 488.591 658.994 488.657 658.229 489.147C657.463 489.637 657 490.483 657 491.391V542.014C656.999 543.117 657.678 544.106 658.708 544.502L693.345 557.824C693.65 557.941 693.974 558 694.301 558C694.466 558 694.631 557.983 694.793 557.952L737.173 550.007H766.238C769.77 550.002 773.156 548.597 775.654 546.101C778.151 543.603 779.555 540.217 779.56 536.685L779.56 536.685ZM677.834 489.863L685.842 500.539L672.302 494.288L677.834 489.863ZM686.309 549.407L662.33 540.183V495.553L686.309 506.623V549.407ZM696.966 552.125L694.555 552.578L691.637 551.456V509.083L693.185 509.796C693.686 510.026 694.243 510.094 694.783 509.994L696.966 509.588V552.125ZM763.575 491.39H768.903C770.316 491.39 771.672 491.951 772.671 492.95C773.671 493.95 774.232 495.306 774.232 496.719V518.033H763.575V491.39ZM758.246 491.39V528.691H739.596V499.383C739.597 498.59 739.243 497.838 738.633 497.331C738.206 497.006 737.689 496.821 737.152 496.798C736.916 496.779 734.129 497.209 734.129 497.209L732.471 491.39L758.246 491.39ZM715.616 491.39H718.369L715.616 492.874V491.39ZM714.218 499.679L727.273 492.648L728.856 498.19L710.64 501.606L714.218 499.679ZM699.63 496.719C699.63 495.306 700.192 493.95 701.191 492.951C702.19 491.951 703.546 491.39 704.959 491.39H710.288V495.741L699.63 501.48V496.719ZM702.295 551.126V508.588L734.267 502.593V528.691H718.734C715.943 528.632 713.237 529.646 711.173 531.523C709.109 533.4 707.842 535.997 707.637 538.781C707.51 540.899 708.029 543.007 709.122 544.825C710.216 546.644 711.834 548.089 713.765 548.972L702.295 551.126ZM718.281 544.678C716.817 544.681 715.415 544.08 714.407 543.016C713.399 541.954 712.874 540.525 712.952 539.062C713.104 537.647 713.783 536.343 714.855 535.409C715.927 534.474 717.313 533.978 718.734 534.021H763.574V523.363H774.231V536.685C774.231 538.805 773.389 540.839 771.891 542.337C770.392 543.836 768.358 544.678 766.239 544.678L718.281 544.678Z" fill="#FFC773"/>
<path d="M666.668 512.514L668.647 507.566L681.969 512.895L679.99 517.843L666.668 512.514Z" fill="#FFC773"/>
<path d="M666.668 523.172L668.647 518.223L681.969 523.552L679.99 528.5L666.668 523.172Z" fill="#FFC773"/>
<path d="M707.294 512.724L728.607 510.06L729.269 515.347L707.955 518.011L707.294 512.724Z" fill="#FFC773"/>
<path d="M699.63 448.762C699.63 451.588 700.753 454.299 702.751 456.298C704.75 458.296 707.461 459.419 710.287 459.419V478.069C710.287 478.776 710.568 479.454 711.067 479.954C711.567 480.453 712.245 480.734 712.951 480.734H760.91C761.616 480.734 762.294 480.453 762.794 479.954C763.293 479.454 763.574 478.776 763.574 478.069V459.419C767.381 459.419 770.9 457.387 772.804 454.09C774.707 450.793 774.707 446.73 772.804 443.433C770.9 440.136 767.381 438.104 763.574 438.104V424.783C763.574 412.969 760.087 406.132 742.259 406.132C722.831 406.132 720.992 400.803 720.945 400.803C721.129 399.716 720.543 398.645 719.527 398.214C718.44 397.76 717.182 398.044 716.396 398.923C708.921 406.399 705.547 413.151 706.362 418.988C706.761 421.767 708.156 424.307 710.287 426.134V438.104C707.461 438.104 704.75 439.227 702.751 441.225C700.753 443.225 699.63 445.936 699.63 448.762L699.63 448.762ZM710.287 454.09C708.383 454.09 706.624 453.075 705.672 451.426C704.721 449.777 704.721 447.746 705.672 446.097C706.624 444.449 708.383 443.433 710.287 443.433V454.09ZM763.574 443.433C765.478 443.433 767.237 444.449 768.189 446.097C769.141 447.746 769.141 449.777 768.189 451.426C767.237 453.075 765.478 454.09 763.574 454.09V443.433ZM758.245 475.405H715.616V427.447H758.245V475.405ZM717.686 405.316C720.488 408.262 727.037 411.46 742.26 411.46C755.264 411.46 757.804 414.734 758.188 422.117H713.796C712.623 421.138 711.856 419.758 711.643 418.245C711.293 415.763 712.154 411.593 717.688 405.316H717.686Z" fill="#FFC773"/>
<path d="M744.924 438.104H750.252V443.433H744.924V438.104Z" fill="#FFC773"/>
<path d="M734.266 443.433H739.595V454.09H734.266V443.433Z" fill="#FFC773"/>
<path d="M723.609 438.104H728.938V443.433H723.609V438.104Z" fill="#FFC773"/>
<path d="M736.931 470.076C740.462 470.072 743.848 468.667 746.346 466.17C748.843 463.673 750.247 460.286 750.252 456.755H744.924C744.924 459.611 743.4 462.249 740.927 463.677C738.454 465.104 735.407 465.104 732.934 463.677C730.461 462.249 728.938 459.611 728.938 456.755H723.609C723.614 460.286 725.018 463.673 727.515 466.17C730.013 468.667 733.399 470.072 736.931 470.076Z" fill="#FFC773"/>
</g>
<g filter="url(#filter2_d_219_65)">
<path d="M123.567 487.599C123.567 489.054 122.388 490.233 120.933 490.233C119.479 490.233 118.3 489.054 118.3 487.599C118.3 486.145 119.479 484.966 120.933 484.966C122.388 484.966 123.567 486.145 123.567 487.599Z" fill="#599DFF"/>
<path d="M123.567 498.133C123.567 499.587 122.388 500.766 120.933 500.766C119.479 500.766 118.3 499.587 118.3 498.133C118.3 496.679 119.479 495.499 120.933 495.499C122.388 495.499 123.567 496.679 123.567 498.133Z" fill="#599DFF"/>
<path d="M123.567 511.3C123.567 512.754 122.388 513.933 120.933 513.933C119.479 513.933 118.3 512.754 118.3 511.3C118.3 509.845 119.479 508.666 120.933 508.666C122.388 508.666 123.567 509.845 123.567 511.3Z" fill="#599DFF"/>
<path d="M132.923 500.489L138.19 503.123C138.558 503.307 138.964 503.399 139.367 503.399C139.77 503.399 140.176 503.307 140.544 503.123L145.81 500.489C146.704 500.041 147.267 499.13 147.267 498.132V490.232C147.267 488.779 146.09 487.599 144.634 487.599H134.1C132.644 487.599 131.467 488.779 131.467 490.232V498.132C131.467 499.13 132.03 500.041 132.923 500.489Z" fill="#599DFF"/>
<path d="M134.1 429.666C134.1 431.12 132.921 432.299 131.467 432.299C130.012 432.299 128.833 431.12 128.833 429.666C128.833 428.211 130.012 427.032 131.467 427.032C132.921 427.032 134.1 428.211 134.1 429.666Z" fill="#599DFF"/>
<path d="M113.033 429.666C113.033 431.12 111.854 432.299 110.4 432.299C108.946 432.299 107.767 431.12 107.767 429.666C107.767 428.211 108.946 427.032 110.4 427.032C111.854 427.032 113.033 428.211 113.033 429.666Z" fill="#599DFF"/>
<path d="M127.371 440.641C123.457 443.249 118.407 443.249 114.491 440.641C113.274 439.83 111.645 440.159 110.838 441.37C110.029 442.579 110.356 444.216 111.567 445.023C114.411 446.919 117.668 447.867 120.928 447.867C124.188 447.867 127.446 446.919 130.289 445.023C131.5 444.218 131.827 442.582 131.018 441.37C130.216 440.159 128.581 439.83 127.37 440.641H127.371Z" fill="#599DFF"/>
<path d="M73.2652 465.443C68.5429 470.596 65.6333 477.44 65.6333 484.966V506.033C65.6333 515.377 72.6245 523.097 81.6462 524.29C79.8898 526.526 78.8 529.309 78.8 532.367C78.8 533.82 79.9768 535 81.4334 535H186.767C188.224 535 189.401 533.82 189.401 532.367C189.401 525.106 183.495 519.2 176.234 519.2H174.435C175.605 516.749 176.234 514.057 176.234 511.3V484.966C176.234 477.44 173.324 470.596 168.602 465.443C172.07 463.231 175.26 460.698 178.095 457.864C178.643 457.316 178.919 456.555 178.859 455.783C178.796 455.012 178.394 454.305 177.764 453.859C166.912 446.105 160.434 433.516 160.434 420.179V408.6C160.434 391.176 146.259 377 128.834 377C125.692 377 122.864 378.383 120.934 380.574C119.003 378.383 116.175 377 113.034 377C95.6091 377 81.4335 391.176 81.4335 408.6V420.179C81.4335 433.514 74.9561 446.105 64.104 453.856C63.475 454.306 63.0718 455.009 63.0083 455.78C62.9472 456.551 63.2246 457.313 63.7725 457.861C66.608 460.698 69.7964 463.231 73.2655 465.443L73.2652 465.443ZM84.0667 519.2C76.8062 519.2 70.9 513.293 70.9 506.033V490.233H84.0667V506.033C84.0667 507.486 85.2435 508.666 86.7001 508.666H102.5C108.86 508.666 114.179 513.198 115.401 519.2H84.0667ZM170.967 511.3C170.967 514.17 169.977 516.917 168.245 519.2H147.673C142.806 519.2 138.027 520.798 134.143 523.71C133.561 523.273 132.926 522.929 132.31 522.549C134.196 517.469 139.096 513.933 144.634 513.933H155.167C156.624 513.933 157.801 512.752 157.801 511.299V490.233H170.967L170.967 511.3ZM152.534 419.132C153.987 419.132 155.167 420.315 155.167 421.766C155.167 426.121 151.623 429.666 147.267 429.666V419.132H152.534ZM92.7252 407.527C95.6854 394.203 107.285 384.899 120.934 384.899C134.582 384.899 146.182 394.202 149.142 407.527C149.456 408.946 148.56 410.353 147.141 410.668C146.948 410.711 146.757 410.732 146.568 410.732C145.361 410.732 144.272 409.897 143.998 408.67C141.579 397.773 132.093 390.166 120.933 390.166C109.773 390.166 100.287 397.773 97.868 408.668C97.5541 410.092 96.1481 410.995 94.7266 410.666C93.3065 410.353 92.4119 408.947 92.7246 407.527L92.7252 407.527ZM120.934 453.365C109.317 453.365 99.8668 443.915 99.8668 432.298V427.654L99.9456 427.811C100.354 433.252 104.857 437.565 110.4 437.565C115.828 437.565 120.256 433.426 120.821 428.146C120.895 428.135 120.971 428.135 121.044 428.146C121.611 433.426 126.039 437.565 131.467 437.565C137.01 437.565 141.514 433.252 141.922 427.811L142 427.654V432.298C142 443.915 132.55 453.365 120.934 453.365H120.934ZM131.467 456.417V465.039L120.934 471.359L110.4 465.039V456.417C113.629 457.834 117.189 458.632 120.934 458.632C124.678 458.632 128.239 457.834 131.467 456.417ZM110.4 413.865C111.28 413.865 112.101 413.426 112.592 412.693L115.667 408.08L118.742 412.693C119.233 413.426 120.054 413.865 120.934 413.865H141.806C141.901 414.564 141.948 415.256 141.969 415.943L139.68 420.517C137.747 418.089 134.806 416.498 131.467 416.498C127.131 416.498 123.401 419.136 121.787 422.889C121.503 422.844 121.227 422.77 120.934 422.77C120.641 422.77 120.365 422.844 120.08 422.889C118.466 419.136 114.737 416.498 110.401 416.498C107.062 416.498 104.121 418.089 102.187 420.517L99.8977 415.943C99.9189 415.255 99.9659 414.562 100.061 413.865H110.4ZM102.776 404.788L105.41 399.522C106.06 398.218 107.643 397.697 108.944 398.345C110.245 398.995 110.772 400.579 110.12 401.879L107.487 407.146C107.027 408.067 106.098 408.599 105.131 408.599C104.736 408.599 104.333 408.509 103.957 408.322C102.655 407.669 102.126 406.089 102.776 404.788L102.776 404.788ZM122.39 398.341C123.692 397.694 125.274 398.218 125.924 399.518L128.557 404.785C129.208 406.086 128.681 407.669 127.381 408.319C127.001 408.509 126.598 408.599 126.203 408.599C125.236 408.599 124.306 408.067 123.843 407.142L121.21 401.875C120.56 400.575 121.089 398.995 122.39 398.341L122.39 398.341ZM130.006 395.874C131.22 395.063 132.85 395.394 133.659 396.603L138.925 404.503C139.734 405.711 139.407 407.349 138.196 408.155C137.745 408.456 137.237 408.599 136.736 408.599C135.885 408.599 135.048 408.188 134.543 407.427L129.276 399.527C128.468 398.316 128.794 396.68 130.006 395.874L130.006 395.874ZM136.734 427.032C136.734 429.937 134.372 432.298 131.467 432.298C128.562 432.298 126.2 429.937 126.2 427.032C126.2 424.127 128.562 421.765 131.467 421.765C134.372 421.765 136.734 424.127 136.734 427.032ZM115.667 427.032C115.667 429.937 113.305 432.298 110.4 432.298C107.495 432.298 105.134 429.937 105.134 427.032C105.134 424.127 107.495 421.765 110.4 421.765C113.305 421.765 115.667 424.127 115.667 427.032ZM89.3334 419.132H94.6001V429.665C90.2444 429.665 86.7001 426.121 86.7001 421.765C86.7001 420.314 87.8804 419.132 89.3334 419.132ZM94.6001 461.265V469.165C94.6001 469.641 94.7295 470.11 94.9763 470.522L102.876 483.689C103.585 484.863 105.072 485.303 106.313 484.689L120.934 477.376L135.557 484.686C135.933 484.876 136.336 484.965 136.731 484.965C137.632 484.965 138.501 484.504 138.991 483.689L146.891 470.522C147.138 470.11 147.267 469.641 147.267 469.165V461.265C160.336 461.265 170.967 471.898 170.967 484.965H157.801V482.332C157.801 480.879 156.624 479.699 155.167 479.699C153.711 479.699 152.534 480.879 152.534 482.332V508.665H144.634C137.034 508.665 130.263 513.41 127.515 520.297C125.34 519.596 123.057 519.22 120.723 519.207C120.128 515.068 118.169 511.373 115.299 508.595L110.175 497.061C109.582 495.736 108.032 495.126 106.699 495.723C105.369 496.316 104.774 497.87 105.361 499.199L107.546 504.116C105.939 503.66 104.252 503.399 102.5 503.399H89.3336V482.332C89.3336 480.879 88.1568 479.699 86.7002 479.699C85.2437 479.699 84.0669 480.879 84.0669 482.332V484.965H70.9001C70.9001 471.898 81.531 461.265 94.6003 461.265L94.6001 461.265Z" fill="#599DFF"/>
</g>
<g filter="url(#filter3_d_219_65)">
<path d="M162.262 187.703C160.033 178.96 152.832 172.616 143.916 171.416L136.029 170.388L133.629 163.53C139.972 159.073 144.772 152.214 146.659 143.985C148.888 142.784 152.488 139.87 152.488 132.327C152.488 126.84 151.63 123.583 149.744 121.869C149.401 121.525 148.887 121.183 148.372 121.011C146.486 104.381 133.284 91.5219 116.826 91.5219C100.366 91.5219 86.9932 104.381 85.279 121.011C84.7647 121.182 84.4215 121.525 84.0783 121.869C82.0212 123.755 81.1638 127.012 81.1638 132.498C81.1638 140.042 84.7648 142.957 86.9927 144.156C88.8787 152.385 93.6793 159.244 100.023 163.701L97.6224 170.559L89.7351 171.587C80.8194 172.788 73.6185 179.131 71.3894 187.875L68.1315 200.39C67.7883 201.762 68.1315 203.134 68.989 204.333C69.8465 205.362 71.2182 206.048 72.5901 206.048H161.232C162.604 206.048 163.976 205.534 164.834 204.333C165.691 203.305 166.034 201.762 165.691 200.39L162.262 187.703ZM102.426 172.959L104.826 166.101C108.598 167.816 112.714 169.016 117.171 169.016C121.457 169.016 125.572 167.987 129.344 166.272L131.573 173.13C122.829 179.302 111.169 179.302 102.426 172.959V172.959ZM117 163.872C104.999 163.872 94.5404 154.614 92.1401 141.756C91.9691 140.727 91.1116 140.041 90.2541 139.699C89.9108 139.528 86.653 138.498 86.653 132.498C86.653 129.24 86.9963 127.526 87.3383 126.669H88.1958C88.1958 127.526 88.8811 130.955 89.5675 130.955H93.1686C93.8539 130.955 94.5403 130.27 94.5403 129.412C94.5403 129.412 95.2256 119.982 96.0831 113.81C96.2541 112.438 97.4549 111.581 98.6544 111.753C103.284 112.782 109.798 113.468 117.171 113.468C124.543 113.468 130.887 112.783 135.687 111.753C136.888 111.41 138.088 112.267 138.259 113.81C138.944 119.982 139.801 129.412 139.801 129.412C139.801 130.27 140.487 130.955 141.173 130.955H144.774C145.46 130.955 146.146 127.697 146.146 126.669H147.003C147.347 127.526 147.689 129.24 147.689 132.498C147.689 138.67 144.431 139.699 144.26 139.699C143.232 139.87 142.374 140.727 142.203 141.756C139.631 154.442 129.172 163.872 117 163.872H117Z" fill="#FF4F4F"/>
<path d="M112.028 130.268C112.028 132.73 110.032 134.726 107.57 134.726C105.108 134.726 103.113 132.73 103.113 130.268C103.113 127.807 105.108 125.811 107.57 125.811C110.031 125.811 112.028 127.807 112.028 130.268Z" fill="#FF4F4F"/>
<path d="M130.887 130.268C130.887 132.73 128.891 134.726 126.429 134.726C123.967 134.726 121.971 132.73 121.971 130.268C121.971 127.807 123.967 125.811 126.429 125.811C128.891 125.811 130.887 127.807 130.887 130.268Z" fill="#FF4F4F"/>
<path d="M127.458 140.898H106.541C105.683 140.898 104.998 141.241 104.484 141.926C103.97 142.612 103.626 143.298 103.799 144.156C104.656 150.842 110.314 155.813 117 155.813C123.687 155.813 129.345 150.842 130.202 144.156C130.373 143.298 130.031 142.613 129.517 141.926C129 141.24 128.314 140.898 127.458 140.898V140.898ZM126.429 146.384H107.569C107.226 145.526 106.884 144.669 106.712 143.812H127.458C127.114 144.841 126.771 145.526 126.429 146.384H126.429Z" fill="#FF4F4F"/>
<path d="M183.007 43.0002H151.803C142.888 43.0002 135.516 50.3719 135.516 59.2876V77.8041C135.516 86.8909 142.888 94.0915 151.803 94.0915H154.033C153.862 96.1485 153.347 98.3777 152.49 100.778C151.461 103.178 152.147 105.922 154.205 107.635C155.406 108.664 156.776 109.178 158.148 109.178C159.176 109.178 160.205 108.835 161.233 108.321C167.577 104.72 173.064 98.8907 176.663 94.0904H182.835C191.922 94.0904 199.123 86.7187 199.123 77.803V59.2874C199.295 50.3717 192.093 43 183.006 43L183.007 43.0002ZM191.923 77.8044C191.923 82.7759 187.98 86.7201 183.007 86.7201H174.949C173.748 86.7201 172.72 87.2344 172.035 88.2629C169.805 91.3484 165.691 96.4921 160.548 100.093C161.576 96.1502 161.748 92.7215 161.576 90.32C161.405 88.2629 159.861 86.7189 157.804 86.7189H151.632C146.661 86.7189 142.716 82.7759 142.716 77.8032L142.717 59.2876C142.717 54.3162 146.661 50.372 151.633 50.372H182.837C187.808 50.372 191.753 54.315 191.753 59.2876L191.751 77.8042L191.923 77.8044Z" fill="#FF4F4F"/>
<path d="M179.921 58.4301H154.889C152.832 58.4301 151.117 60.145 151.117 62.2019C151.117 64.2588 152.832 65.9738 154.889 65.9738H179.921C181.978 65.9738 183.693 64.2588 183.693 62.2019C183.693 60.145 181.978 58.4301 179.921 58.4301V58.4301Z" fill="#FF4F4F"/>
<path d="M179.921 70.9464H154.889C152.832 70.9464 151.117 72.6614 151.117 74.7183C151.117 76.7752 152.832 78.4902 154.889 78.4902H179.921C181.978 78.4902 183.693 76.7752 183.693 74.7183C183.693 72.6601 181.978 70.9464 179.921 70.9464V70.9464Z" fill="#FF4F4F"/>
</g>
<path fill-rule="evenodd" clip-rule="evenodd" d="M736.635 377.503C763.447 381.527 792.031 387.979 807.79 410.041C822.133 430.122 814.009 456.741 810.704 481.196C808.024 501.022 803.87 520.221 790.845 535.406C776.627 551.984 757.67 561.682 736.635 567.553C704.363 576.561 667.397 597.292 640.445 577.386C613.018 557.128 619.73 515.293 619.713 481.196C619.697 447.074 614.823 407.554 640.352 384.914C665.388 362.711 703.543 372.537 736.635 377.503Z" fill="#FFC773" fill-opacity="0.1"/>
<path fill-rule="evenodd" clip-rule="evenodd" d="M768.635 377.503C795.447 381.527 824.031 387.979 839.79 410.041C854.133 430.122 846.009 456.741 842.704 481.196C840.024 501.022 835.87 520.221 822.845 535.406C808.627 551.984 789.67 561.682 768.635 567.553C736.363 576.561 699.397 597.292 672.445 577.386C645.018 557.128 651.73 515.293 651.713 481.196C651.697 447.074 646.823 407.554 672.352 384.914C697.388 362.711 735.543 372.537 768.635 377.503Z" fill="#FFC773" fill-opacity="0.1"/>
<path fill-rule="evenodd" clip-rule="evenodd" d="M95.8796 351.127C125.627 352.97 143.923 381.434 164.469 403.025C184.207 423.766 207.821 443.112 210.538 471.615C213.461 502.268 202.457 534.8 178.927 554.662C156.638 573.477 125.037 569.22 95.8796 568.398C67.9619 567.611 35.8682 571.047 17.3843 550.11C-0.687908 529.639 10.2884 498.921 10.4363 471.615C10.5828 444.573 2.58712 416.024 18.2301 393.965C36.0063 368.898 65.208 349.227 95.8796 351.127Z" fill="#599DFF" fill-opacity="0.1"/>
<path fill-rule="evenodd" clip-rule="evenodd" d="M133.88 347.127C163.627 348.97 181.923 377.434 202.469 399.025C222.207 419.766 245.821 439.112 248.538 467.615C251.461 498.268 240.457 530.8 216.927 550.662C194.638 569.477 163.037 565.22 133.88 564.398C105.962 563.611 73.8682 567.047 55.3843 546.11C37.3121 525.639 48.2884 494.921 48.4363 467.615C48.5828 440.573 40.5871 412.024 56.2301 389.965C74.0063 364.898 103.208 345.227 133.88 347.127Z" fill="#599DFF" fill-opacity="0.1"/>
<g filter="url(#filter4_d_219_65)">
<path d="M718.558 123.275C718.558 126.15 716.228 128.48 713.354 128.48C710.479 128.48 708.149 126.15 708.149 123.275C708.149 120.4 710.48 118.07 713.354 118.07C716.228 118.07 718.558 120.4 718.558 123.275Z" fill="#03C29E"/>
<path d="M740.01 123.275C740.01 126.15 737.679 128.48 734.805 128.48C731.931 128.48 729.6 126.15 729.6 123.275C729.6 120.4 731.931 118.07 734.805 118.07C737.679 118.07 740.01 120.4 740.01 123.275Z" fill="#03C29E"/>
<path d="M724.237 147.092C729.442 147.092 734.174 144.727 736.54 140.784C737.486 139.364 737.013 137.629 735.751 136.683C734.331 135.737 732.596 136.21 731.65 137.472C730.231 139.68 727.391 141.099 724.237 141.099C721.082 141.099 718.243 139.68 716.824 137.472C715.877 136.053 714.142 135.737 712.723 136.683C711.304 137.629 710.988 139.364 711.934 140.784C714.301 144.726 719.032 147.092 724.237 147.092H724.237Z" fill="#03C29E"/>
<path d="M754.047 167.282H742.218L740.64 161.603C753.732 162.708 763.669 162.076 760.987 134.474C762.722 132.582 763.668 129.9 763.668 126.272C763.668 121.54 762.563 118.385 760.355 116.335C759.724 115.861 758.936 115.23 757.989 114.915C751.208 83.5272 728.494 84.0004 724.393 84.0004C720.293 84.0004 697.421 83.5273 690.639 114.915C689.535 115.388 688.747 115.861 688.115 116.493C685.907 118.544 684.802 121.855 684.802 126.43C684.802 130.216 685.749 132.897 687.484 134.79C684.802 162.235 694.74 163.023 707.673 161.919L706.095 167.597L694.112 167.596C683.701 167.596 675.184 176.113 675.184 186.523V198.353C675.184 201.034 677.392 203.242 680.074 203.242H767.929C770.61 203.242 772.818 201.034 772.818 198.353V186.523C772.975 175.641 764.457 167.282 754.047 167.282L754.047 167.282ZM697.423 134.789C697.265 133.054 695.845 131.635 694.11 131.477C691.902 131.319 690.324 131.161 690.324 126.271C690.324 122.486 691.27 121.066 691.743 120.593C691.901 120.593 692.059 120.436 692.374 120.277C692.69 121.382 693.479 122.328 694.739 122.486C696.317 122.801 697.894 121.697 698.052 120.12C698.525 117.282 699.314 114.915 700.103 112.549C704.992 113.023 712.406 111.445 720.135 107.66C724.078 105.768 727.391 103.717 730.23 101.509C731.334 102.613 732.595 103.874 734.015 104.979C738.905 108.922 744.11 111.603 747.737 112.235C748.684 114.6 749.473 117.124 749.946 120.121C750.261 121.541 751.365 122.487 752.784 122.487H753.257C754.519 122.329 755.308 121.382 755.623 120.279C755.939 120.436 756.096 120.594 756.253 120.594C756.726 121.067 757.672 122.487 757.672 126.273C757.672 131.162 756.095 131.32 753.887 131.478C752.152 131.635 750.732 133.055 750.574 134.791C749.785 142.204 745.053 149.144 736.693 154.98C729.28 160.185 718.87 160.185 711.299 154.98C702.944 148.985 698.212 142.202 697.423 134.789H697.423ZM734.962 175.326L727.233 181.161C725.341 182.581 722.817 182.581 720.925 181.161L713.196 175.326C711.461 174.064 710.672 171.856 711.303 169.805L713.196 162.549C716.666 163.968 720.293 164.914 724.079 164.914C727.865 164.914 731.493 164.125 734.963 162.549L736.855 169.805C737.487 171.855 736.698 174.064 734.963 175.326H734.962Z" fill="#03C29E"/>
<path d="M669.189 99.9313C668.085 98.8266 666.192 98.8266 664.93 99.9313C663.826 101.036 663.826 102.928 664.93 104.19C670.609 109.868 673.763 117.439 673.763 125.484C673.763 133.528 670.609 141.1 664.93 146.778C664.3 147.409 663.984 148.197 663.984 148.829C663.984 149.618 664.3 150.407 664.773 150.88C665.878 151.984 667.77 151.984 669.032 150.88C675.814 144.098 679.6 134.949 679.6 125.328C679.757 115.862 675.971 106.872 669.189 99.9314L669.189 99.9313Z" fill="#03C29E"/>
<path d="M661.618 107.502C660.514 106.398 658.621 106.398 657.359 107.502C656.729 108.133 656.571 108.764 656.571 109.553C656.571 110.342 656.886 111.131 657.517 111.604C661.144 115.231 663.352 120.279 663.352 125.484C663.352 130.689 661.302 135.736 657.674 139.365C656.57 140.469 656.57 142.362 657.674 143.624C658.779 144.728 660.671 144.728 661.933 143.624C666.822 138.734 669.504 132.424 669.504 125.485C669.19 118.701 666.509 112.234 661.619 107.502L661.618 107.502Z" fill="#03C29E"/>
<path d="M654.205 114.916C653.101 113.811 651.208 113.811 649.946 114.916C648.842 116.02 648.842 117.913 649.946 119.174C653.416 122.645 653.416 128.639 649.946 132.109C649.316 132.739 649 133.371 649 134.16C649 134.948 649.316 135.737 649.946 136.21C651.051 137.315 652.943 137.315 654.205 136.21C657.044 133.372 658.622 129.586 658.622 125.485C658.622 121.54 657.044 117.755 654.205 114.916V114.916Z" fill="#03C29E"/>
<path d="M774.395 125.641C774.395 117.597 777.549 110.026 783.227 104.347C784.332 103.242 784.332 101.35 783.227 100.088C782.122 98.8262 780.23 98.9835 778.968 100.088C772.186 106.87 768.4 116.018 768.4 125.64C768.4 135.261 772.186 144.41 778.968 151.192C780.073 152.296 781.965 152.296 783.227 151.192C783.857 150.561 784.016 149.93 784.016 149.141C784.016 148.352 783.7 147.563 783.07 147.09C777.549 141.256 774.394 133.685 774.394 125.641L774.395 125.641Z" fill="#03C29E"/>
<path d="M784.962 125.641C784.962 120.436 787.013 115.389 790.798 111.761C791.428 111.13 791.744 110.341 791.744 109.71C791.744 108.921 791.428 108.132 790.955 107.659C789.851 106.554 787.958 106.397 786.696 107.659C781.964 112.391 779.126 119.016 779.126 125.797C779.126 132.579 781.807 139.046 786.696 143.936C787.801 145.04 789.693 145.04 790.955 143.936C792.06 142.831 792.06 140.938 790.955 139.677C787.013 135.736 784.962 130.846 784.962 125.641L784.962 125.641Z" fill="#03C29E"/>
<path d="M798.054 132.108C794.584 128.638 794.584 122.644 798.054 119.174C799.158 118.069 799.158 116.176 798.054 114.915C796.949 113.81 795.057 113.81 793.795 114.915C790.956 117.753 789.378 121.539 789.378 125.64C789.378 129.74 790.956 133.526 793.795 136.365C794.899 137.469 796.792 137.469 798.054 136.365C798.684 135.734 799 135.103 799 134.314C799 133.37 798.684 132.582 798.054 132.108V132.108Z" fill="#03C29E"/>
</g>
<path d="M542.178 241.945L576.082 220.134L605.343 241.307L682.763 199.22" stroke="#03C29E" stroke-width="8"/>
<path d="M533.178 403.938L567.082 425.749L596.343 404.576L712 465.5" stroke="#FFC773" stroke-width="8"/>
<path d="M314.585 408.938L280.681 430.749L251.42 409.576L174 451.663" stroke="#599DFF" stroke-width="8"/>
<path d="M302.585 241.945L268.681 220.134L239.42 241.307L162 199.22" stroke="#FF4F4F" stroke-width="8"/>
</g>
<defs>
<filter id="filter0_d_219_65" x="278.46" y="174.817" width="288.922" height="462.845" filterUnits="userSpaceOnUse" color-interpolation-filters="sRGB">
<feFlood flood-opacity="0" result="BackgroundImageFix"/>
<feColorMatrix in="SourceAlpha" type="matrix" values="0 0 0 0 0 0 0 0 0 0 0 0 0 0 0 0 0 0 127 0" result="hardAlpha"/>
<feOffset dy="4"/>
<feGaussianBlur stdDeviation="2"/>
<feComposite in2="hardAlpha" operator="out"/>
<feColorMatrix type="matrix" values="0 0 0 0 0 0 0 0 0 0 0 0 0 0 0 0 0 0 0.25 0"/>
<feBlend mode="normal" in2="BackgroundImageFix" result="effect1_dropShadow_219_65"/>
<feBlend mode="normal" in="SourceGraphic" in2="effect1_dropShadow_219_65" result="shape"/>
</filter>
<filter id="filter1_d_219_65" x="653" y="398" width="130.56" height="168" filterUnits="userSpaceOnUse" color-interpolation-filters="sRGB">
<feFlood flood-opacity="0" result="BackgroundImageFix"/>
<feColorMatrix in="SourceAlpha" type="matrix" values="0 0 0 0 0 0 0 0 0 0 0 0 0 0 0 0 0 0 127 0" result="hardAlpha"/>
<feOffset dy="4"/>
<feGaussianBlur stdDeviation="2"/>
<feComposite in2="hardAlpha" operator="out"/>
<feColorMatrix type="matrix" values="0 0 0 0 0 0 0 0 0 0 0 0 0 0 0 0 0 0 0.25 0"/>
<feBlend mode="normal" in2="BackgroundImageFix" result="effect1_dropShadow_219_65"/>
<feBlend mode="normal" in="SourceGraphic" in2="effect1_dropShadow_219_65" result="shape"/>
</filter>
<filter id="filter2_d_219_65" x="59" y="377" width="134.401" height="166" filterUnits="userSpaceOnUse" color-interpolation-filters="sRGB">
<feFlood flood-opacity="0" result="BackgroundImageFix"/>
<feColorMatrix in="SourceAlpha" type="matrix" values="0 0 0 0 0 0 0 0 0 0 0 0 0 0 0 0 0 0 127 0" result="hardAlpha"/>
<feOffset dy="4"/>
<feGaussianBlur stdDeviation="2"/>
<feComposite in2="hardAlpha" operator="out"/>
<feColorMatrix type="matrix" values="0 0 0 0 0 0 0 0 0 0 0 0 0 0 0 0 0 0 0.25 0"/>
<feBlend mode="normal" in2="BackgroundImageFix" result="effect1_dropShadow_219_65"/>
<feBlend mode="normal" in="SourceGraphic" in2="effect1_dropShadow_219_65" result="shape"/>
</filter>
<filter id="filter3_d_219_65" x="64" y="43" width="139.126" height="171.048" filterUnits="userSpaceOnUse" color-interpolation-filters="sRGB">
<feFlood flood-opacity="0" result="BackgroundImageFix"/>
<feColorMatrix in="SourceAlpha" type="matrix" values="0 0 0 0 0 0 0 0 0 0 0 0 0 0 0 0 0 0 127 0" result="hardAlpha"/>
<feOffset dy="4"/>
<feGaussianBlur stdDeviation="2"/>
<feComposite in2="hardAlpha" operator="out"/>
<feColorMatrix type="matrix" values="0 0 0 0 0 0 0 0 0 0 0 0 0 0 0 0 0 0 0.25 0"/>
<feBlend mode="normal" in2="BackgroundImageFix" result="effect1_dropShadow_219_65"/>
<feBlend mode="normal" in="SourceGraphic" in2="effect1_dropShadow_219_65" result="shape"/>
</filter>
<filter id="filter4_d_219_65" x="645" y="84" width="158" height="127.242" filterUnits="userSpaceOnUse" color-interpolation-filters="sRGB">
<feFlood flood-opacity="0" result="BackgroundImageFix"/>
<feColorMatrix in="SourceAlpha" type="matrix" values="0 0 0 0 0 0 0 0 0 0 0 0 0 0 0 0 0 0 127 0" result="hardAlpha"/>
<feOffset dy="4"/>
<feGaussianBlur stdDeviation="2"/>
<feComposite in2="hardAlpha" operator="out"/>
<feColorMatrix type="matrix" values="0 0 0 0 0 0 0 0 0 0 0 0 0 0 0 0 0 0 0.25 0"/>
<feBlend mode="normal" in2="BackgroundImageFix" result="effect1_dropShadow_219_65"/>
<feBlend mode="normal" in="SourceGraphic" in2="effect1_dropShadow_219_65" result="shape"/>
</filter>
<clipPath id="clip0_219_65">
<rect width="845" height="645" fill="white"/>
</clipPath>
</defs>
</svg>
