<svg width="170" height="136" viewBox="0 0 170 136" fill="none" xmlns="http://www.w3.org/2000/svg">
<path d="M6.04165 67.8825C5.00729 68.582 4.0086 69.2968 3.04713 70.0235L0.437943 67.6165C1.45846 66.8456 2.51465 66.09 3.61226 65.3473L6.04165 67.8825Z" fill="black" fill-opacity="0.3"/>
<path d="M148.154 67.8609C146 66.8725 143.789 65.9075 141.583 64.9948L143.495 62.0001C145.748 62.9335 148.007 63.9187 150.209 64.9302L148.154 67.8609ZM134.864 62.3619C132.608 61.5262 130.298 60.7241 128.007 59.9752L129.614 56.8697C131.96 57.6351 134.319 58.4573 136.628 59.3114L134.864 62.3619ZM121.02 57.851C118.674 57.1886 116.281 56.5634 113.912 55.9963L115.176 52.7946C117.607 53.3765 120.057 54.0144 122.461 54.6944L121.02 57.851ZM106.692 54.4249C104.286 53.9522 101.824 53.5234 99.3788 53.1535L100.267 49.8794C102.776 50.2604 105.301 50.6995 107.775 51.1838L106.692 54.4249ZM91.9814 52.1946C89.5145 51.9271 87.0033 51.7136 84.5215 51.5575L85.0019 48.2413C87.555 48.4009 90.1357 48.6214 92.6721 48.8943L91.9814 52.1946ZM77.0175 51.2557C74.4996 51.2112 71.966 51.2255 69.487 51.3L69.5277 47.9753C72.0816 47.9008 74.6909 47.8855 77.2805 47.9308L77.0175 51.2557ZM61.9539 51.7012C59.4535 51.8936 56.9295 52.1531 54.4517 52.4706L54.0155 49.184C56.5746 48.8542 59.1793 48.5879 61.7634 48.3861L61.9539 51.7012ZM47.0055 53.6251C44.5253 54.0754 42.048 54.598 39.6479 55.1712L38.7009 51.9772C41.1878 51.3802 43.7509 50.8421 46.3197 50.375L47.0055 53.6251ZM32.4189 57.1264C30.0236 57.8506 27.6506 58.6505 25.367 59.5027L23.8648 56.4776C26.2407 55.5901 28.7101 54.7562 31.2036 54.0035L32.4189 57.1264ZM18.5455 62.3201C16.2942 63.3439 14.1024 64.446 12.0298 65.5912L9.91735 62.8463C12.0906 61.6442 14.3874 60.4897 16.7481 59.4162L18.5455 62.3201Z" fill="black" fill-opacity="0.3"/>
<path d="M158.07 74.0772C156.969 73.4991 155.871 72.9313 154.774 72.3775L156.952 69.5232C158.072 70.0883 159.192 70.6631 160.311 71.2562L158.07 74.0772Z" fill="black" fill-opacity="0.3"/>
<path d="M162.724 74.8118L140.295 76.7097L140.024 72.7621L155.854 71.4201L150.29 59.9304L154.73 58.3066L162.724 74.8118Z" fill="black" fill-opacity="0.3"/>
</svg>
