<svg width="225" height="225" viewBox="0 0 225 225" fill="none" xmlns="http://www.w3.org/2000/svg">
<path d="M109.598 92.654C106.803 92.6619 104.063 91.9161 101.69 90.5033C100.461 89.762 100.089 88.2085 100.86 87.0289C101.629 85.8494 103.252 85.49 104.485 86.2245C106.03 87.1123 107.797 87.5809 109.598 87.5809C111.4 87.5809 113.167 87.1123 114.711 86.2245C115.304 85.8696 116.02 85.7536 116.702 85.9034C117.383 86.0533 117.974 86.4566 118.346 87.0244C118.717 87.5922 118.837 88.2772 118.679 88.9306C118.521 89.5829 118.1 90.1484 117.507 90.5033C115.133 91.916 112.393 92.6618 109.598 92.6539L109.598 92.654ZM187.611 107.846C186.919 108.577 186.016 109.093 185.014 109.326C184.014 109.561 182.962 109.502 181.997 109.158L175.038 106.736L168.173 124.79V124.789C169.423 126.738 170.089 128.977 170.101 131.264C170.096 134.609 168.707 137.817 166.237 140.182C163.766 142.547 160.416 143.879 156.922 143.882C156.222 143.869 155.523 143.801 154.834 143.68L134.431 156.116C133.919 159.404 132.062 162.364 129.27 164.343C126.478 166.321 122.98 167.157 119.544 166.666C116.108 166.175 113.018 164.397 110.952 161.724H89.1312C87.6427 163.66 85.601 165.144 83.2522 165.995C80.9022 166.847 78.3464 167.03 75.8915 166.522L61.3249 178.906C60.8707 182.418 58.8996 185.587 55.8919 187.644C52.8842 189.701 49.1139 190.457 45.4966 189.73C41.8792 189.002 38.7457 186.857 36.8569 183.816C34.9671 180.775 34.4952 177.115 35.5542 173.725C36.6133 170.334 39.108 167.524 42.4323 165.975C45.7553 164.427 49.6046 164.283 53.0451 165.576L65.5022 154.713C65.4939 154.534 65.4469 154.366 65.4469 154.184V154.185C65.4645 152.923 65.6846 151.671 66.0964 150.471V124.526C66.1117 122.021 66.9601 119.587 68.5193 117.577C70.0797 115.566 72.2683 114.085 74.7689 113.347L92.799 108.198L97.7542 106.785H97.753C99.3051 106.345 100.368 104.978 100.363 103.429V101.111C92.6201 98.2626 86.813 91.9797 84.8043 84.275C84.5337 84.2986 84.2736 84.3505 83.9948 84.3505C81.0341 84.3606 78.2594 82.9738 76.5754 80.643C74.8914 78.3122 74.5137 75.3378 75.5681 72.6894C76.6213 70.0408 78.9688 68.059 81.846 67.3911L81.8213 67.2491L81.8201 67.2266L81.8213 67.2255C80.574 59.8057 82.6191 52.2238 87.4648 46.3115C92.3107 40.398 99.5158 36.6926 107.341 36.0878C115.165 35.4817 122.899 38.0334 128.673 43.1255C134.447 48.2164 137.737 55.3862 137.749 62.9014C137.75 64.3457 137.624 65.7878 137.376 67.2116C137.373 67.224 137.377 67.2353 137.375 67.2477L137.358 67.3434V67.3446C140.259 67.9766 142.644 69.9402 143.733 72.5901C144.821 75.2398 144.47 78.233 142.796 80.5867C141.123 82.9401 138.342 84.3495 135.367 84.3507C135.042 84.3372 134.718 84.3045 134.396 84.2549C132.391 91.9755 126.573 98.2708 118.814 101.118V103.429C118.81 104.986 119.886 106.356 121.45 106.786L126.405 108.198L144.408 113.347C147.74 114.335 150.474 116.636 151.922 119.675C152.441 119.46 152.976 119.276 153.519 119.126L160.197 101.562L153.212 99.1396C151.918 98.6799 150.867 97.7494 150.288 96.5496C149.709 95.3497 149.65 93.9798 150.124 92.7394C150.598 91.4979 151.566 90.4874 152.817 89.9286L172.454 81.1718C173.7 80.5983 175.137 80.5341 176.434 80.9949C177.725 81.4523 178.776 82.3761 179.36 83.5691L188.507 102.37C188.947 103.263 189.098 104.263 188.938 105.24C188.779 106.216 188.315 107.124 187.61 107.846L187.611 107.846ZM56.2204 177.32C56.2204 175.312 55.3873 173.386 53.9046 171.967C52.4207 170.547 50.4096 169.749 48.3129 169.749C46.2148 169.749 44.2036 170.547 42.7212 171.967C41.2385 173.386 40.4054 175.313 40.4054 177.32C40.4054 179.327 41.2385 181.254 42.7212 182.673C44.2039 184.093 46.215 184.89 48.3129 184.89C50.4087 184.888 52.4198 184.089 53.9013 182.671C55.384 181.252 56.2183 179.327 56.2206 177.32L56.2204 177.32ZM136.511 72.3549L135.336 79.2991L135.369 79.3047H135.367C137.197 79.3036 138.754 78.0283 139.039 76.2966C139.324 74.5662 138.252 72.8943 136.511 72.3547L136.511 72.3549ZM83.8596 79.2924L82.6935 72.401C81.019 72.9846 80.014 74.6249 80.2988 76.308C80.5836 77.9923 82.078 79.2452 83.8595 79.2924H83.8596ZM109.598 97.7054C114.425 97.7212 119.099 96.0831 122.775 93.0886C126.451 90.0929 128.887 85.9382 129.643 81.3733L131.59 69.8685C127.988 67.3957 124.856 64.3505 122.328 60.8648C114.066 63.5055 105.131 63.5055 96.8694 60.8648C94.343 64.3516 91.2093 67.3966 87.6073 69.8685L89.5536 81.3733C90.3091 85.937 92.745 90.0929 96.4211 93.0874C100.097 96.0831 104.771 97.721 109.598 97.7054H109.598ZM99.4665 111.581C105.993 113.97 113.211 113.97 119.737 111.581C117.937 111.025 116.367 109.937 115.254 108.471C114.14 107.006 113.541 105.242 113.543 103.431V102.445C110.924 102.855 108.253 102.855 105.635 102.442V103.431C105.64 105.239 105.045 107.003 103.937 108.468C102.828 109.932 101.263 111.023 99.4664 111.581H99.4665ZM70.6717 164.181C69.1938 163.096 67.9723 161.725 67.0875 160.157L57.6312 168.406C58.9197 169.655 59.9223 171.146 60.5765 172.786L70.6717 164.181ZM86.5341 154.188C86.5341 152.181 85.7009 150.254 84.2182 148.835C82.7344 147.415 80.7232 146.618 78.6265 146.618C76.5284 146.618 74.5173 147.415 73.0348 148.835C71.5521 150.254 70.719 152.181 70.719 154.188C70.719 156.196 71.5521 158.121 73.0348 159.541C74.5175 160.961 76.5287 161.759 78.6265 161.759C80.7223 161.756 82.7334 160.958 84.2149 159.539C85.6976 158.12 86.5319 156.195 86.5343 154.188L86.5341 154.188ZM108.277 154.188H108.276C108.277 153.33 108.368 152.472 108.55 151.632H91.5318C91.893 153.296 91.8966 155.013 91.5424 156.679H108.539C108.365 155.859 108.277 155.024 108.276 154.188H108.277ZM129.364 154.188H129.363C129.363 152.181 128.53 150.254 127.047 148.835C125.564 147.415 123.553 146.618 121.455 146.618C119.358 146.618 117.347 147.415 115.864 148.835C114.38 150.254 113.547 152.181 113.547 154.188C113.547 156.196 114.38 158.121 115.864 159.541C117.347 160.961 119.358 161.759 121.455 161.759C123.552 161.756 125.562 160.958 127.045 159.539C128.527 158.12 129.362 156.195 129.363 154.188L129.364 154.188ZM148.975 141.266C147.548 140.221 146.36 138.908 145.48 137.409L131.144 145.705H131.145C132.435 147.061 133.4 148.674 133.97 150.425L148.975 141.266ZM164.83 131.267C164.83 129.259 163.997 127.332 162.514 125.913C161.03 124.494 159.019 123.696 156.922 123.696C154.825 123.696 152.813 124.494 151.33 125.913C149.848 127.333 149.015 129.259 149.015 131.267C149.015 133.274 149.848 135.201 151.33 136.62C152.813 138.039 154.825 138.837 156.922 138.837C159.018 138.835 161.029 138.036 162.51 136.618C163.993 135.198 164.827 133.274 164.83 131.266L164.83 131.267ZM183.657 104.366L174.589 85.7167L155.031 94.5243L164.467 97.6789H164.468C165.834 98.1543 166.542 99.5985 166.05 100.909L159.214 118.871C160.978 119.164 162.66 119.8 164.156 120.74L171.005 102.649C171.241 102.019 171.73 101.506 172.363 101.222C172.996 100.938 173.722 100.906 174.379 101.135L183.657 104.366Z" fill="#03C29E"/>
</svg>
