<svg width="245" height="245" viewBox="0 0 245 245" fill="none" xmlns="http://www.w3.org/2000/svg">
<g clip-path="url(#clip0_220_118)">
<rect width="245" height="245" fill="white"/>
<path d="M122.5 1C114.918 1 107.649 4.01145 102.289 9.37247C96.928 14.7317 93.9166 22.0014 93.9166 29.5833C93.9166 37.1653 96.9281 44.4345 102.289 49.7942C107.648 55.1553 114.918 58.1667 122.5 58.1667C130.082 58.1667 137.351 55.1552 142.711 49.7942C148.072 44.435 151.083 37.1653 151.083 29.5833C151.074 22.0056 148.059 14.741 142.701 9.3818C137.342 4.02447 130.078 1.00933 122.5 1V1ZM122.5 50C117.086 50 111.893 47.8489 108.062 44.0211C104.234 40.1911 102.083 34.9976 102.083 29.5833C102.083 24.1691 104.234 18.976 108.062 15.1456C111.892 11.3175 117.086 9.16667 122.5 9.16667C127.914 9.16667 133.107 11.3177 136.938 15.1456C140.766 18.9755 142.917 24.1691 142.917 29.5833C142.909 34.9957 140.756 40.1855 136.93 44.0136C133.102 47.8399 127.912 49.9925 122.5 50Z" fill="#03C29E"/>
<path d="M216.417 103.083C223.998 103.083 231.268 100.072 236.627 94.7108C241.989 89.3516 245 82.0819 245 74.5C245 66.918 241.988 59.6488 236.627 54.2891C231.268 48.928 223.999 45.9166 216.417 45.9166C208.835 45.9166 201.565 48.9281 196.206 54.2891C190.845 59.6483 187.833 66.918 187.833 74.5C187.842 82.0777 190.857 89.3423 196.215 94.7015C201.574 100.059 208.839 103.074 216.417 103.083V103.083ZM216.417 54.0833C221.831 54.0833 227.024 56.2343 230.854 60.0622C234.682 63.8922 236.833 69.0857 236.833 74.5C236.833 79.9142 234.682 85.1073 230.854 88.9377C227.024 92.7658 221.831 94.9166 216.417 94.9166C211.002 94.9166 205.809 92.7656 201.979 88.9377C198.151 85.1078 196 79.9142 196 74.5C196.007 69.0876 198.16 63.8978 201.986 60.0697C205.814 56.2434 211.004 54.0908 216.417 54.0833Z" fill="#03C29E"/>
<path d="M216.417 168.417C208.835 168.417 201.565 171.428 196.206 176.789C190.845 182.148 187.833 189.418 187.833 197C187.833 204.582 190.845 211.851 196.206 217.211C201.565 222.572 208.835 225.583 216.417 225.583C223.999 225.583 231.268 222.572 236.627 217.211C241.989 211.852 245 204.582 245 197C244.991 189.422 241.976 182.158 236.618 176.798C231.259 171.441 223.994 168.426 216.417 168.417ZM216.417 217.417C211.002 217.417 205.809 215.266 201.979 211.438C198.151 207.608 196 202.414 196 197C196 191.586 198.151 186.393 201.979 182.562C205.809 178.734 211.002 176.583 216.417 176.583C221.831 176.583 227.024 178.734 230.854 182.562C234.682 186.392 236.833 191.586 236.833 197C236.826 202.412 234.673 207.602 230.847 211.43C227.019 215.257 221.829 217.409 216.417 217.417Z" fill="#03C29E"/>
<path d="M28.5833 103.083C36.1648 103.083 43.4345 100.072 48.7942 94.7108C54.1553 89.3516 57.1667 82.0819 57.1667 74.5C57.1667 66.918 54.1552 59.6488 48.7942 54.2891C43.435 48.928 36.1653 45.9166 28.5833 45.9166C21.0014 45.9166 13.7321 48.9281 8.37247 54.2891C3.0114 59.6483 0 66.918 0 74.5C0.00911447 82.0777 3.02423 89.3423 8.3818 94.7015C13.741 100.059 21.0056 103.074 28.5833 103.083ZM28.5833 54.0833C33.9976 54.0833 39.1907 56.2343 43.0211 60.0622C46.8492 63.8922 49 69.0857 49 74.5C49 79.9142 46.8489 85.1073 43.0211 88.9377C39.1911 92.7658 33.9976 94.9166 28.5833 94.9166C23.1691 94.9166 17.976 92.7656 14.1456 88.9377C10.3175 85.1078 8.16667 79.9142 8.16667 74.5C8.17396 69.0876 10.3268 63.8978 14.1531 60.0697C17.9812 56.2434 23.1709 54.0908 28.5833 54.0833Z" fill="#03C29E"/>
<path d="M28.5833 225.583C36.1648 225.583 43.4345 222.572 48.7942 217.211C54.1553 211.852 57.1667 204.582 57.1667 197C57.1667 189.418 54.1552 182.149 48.7942 176.789C43.435 171.428 36.1653 168.417 28.5833 168.417C21.0014 168.417 13.7321 171.428 8.37247 176.789C3.0114 182.148 0 189.418 0 197C0.00911447 204.578 3.02423 211.842 8.3818 217.201C13.741 222.559 21.0056 225.574 28.5833 225.583ZM28.5833 176.583C33.9976 176.583 39.1907 178.734 43.0211 182.562C46.8492 186.392 49 191.586 49 197C49 202.414 46.8489 207.607 43.0211 211.438C39.1911 215.266 33.9976 217.417 28.5833 217.417C23.1691 217.417 17.976 215.266 14.1456 211.438C10.3175 207.608 8.16667 202.414 8.16667 197C8.17396 191.588 10.3268 186.398 14.1531 182.57C17.9812 178.743 23.1709 176.591 28.5833 176.583Z" fill="#03C29E"/>
<path d="M114.926 22.4378C115.467 22.4378 115.987 22.6529 116.37 23.0357C116.753 23.4185 116.968 23.938 116.968 24.4794H121.051C121.051 21.0961 118.308 18.3544 114.926 18.3544C111.543 18.3544 108.801 21.0961 108.801 24.4794H112.884C112.884 23.351 113.798 22.4378 114.926 22.4378Z" fill="#03C29E"/>
<path d="M131.259 18.3544C127.876 18.3544 125.134 21.0961 125.134 24.4794H129.218C129.218 23.351 130.131 22.4378 131.259 22.4378C132.386 22.4378 133.301 23.351 133.301 24.4794H137.384C137.384 21.0961 134.641 18.3544 131.259 18.3544Z" fill="#03C29E"/>
<path d="M123.093 38.7712C119.709 38.7712 116.968 36.0295 116.968 32.6462H112.884C112.884 36.2938 114.829 39.6625 117.989 41.4872C121.146 43.3101 125.038 43.3101 128.197 41.4872C131.354 39.6624 133.302 36.2936 133.302 32.6462H129.218C129.218 36.0295 126.475 38.7712 123.093 38.7712H123.093Z" fill="#03C29E"/>
<path d="M141.013 123.855C142.265 121.188 142.914 118.278 142.916 115.332C142.916 108.039 139.024 101.298 132.707 97.6518C126.391 94.0041 118.607 94.0041 112.291 97.6518C105.974 101.298 102.082 108.039 102.082 115.332C102.084 118.278 102.733 121.188 103.986 123.855C97.7532 124.896 92.093 128.111 88.0059 132.931C83.9208 137.751 81.6732 143.861 81.6658 150.179V184.749C81.6658 185.832 82.096 186.871 82.8616 187.637C83.6272 188.402 84.6663 188.832 85.7491 188.832H97.9991V241.916C97.9991 242.998 98.4293 244.038 99.1949 244.803C99.9606 245.569 101 245.999 102.082 245.999H142.916C143.999 245.999 145.038 245.569 145.803 244.803C146.569 244.038 146.999 242.998 146.999 241.916V188.832H159.249C160.332 188.832 161.371 188.402 162.137 187.637C162.902 186.871 163.332 185.832 163.332 184.749V150.179C163.325 143.861 161.078 137.751 156.992 132.931C152.905 128.111 147.245 124.895 141.013 123.855H141.013ZM155.166 180.667H146.999V143.917H138.832V237.833H126.582V184.75H118.416V237.833H106.166V143.917H97.999V180.667H89.8323V150.18C89.8378 145.271 91.7902 140.566 95.2611 137.095C98.732 133.625 103.437 131.672 108.346 131.667H111.8C113.503 131.667 115.025 130.611 115.623 129.018C116.221 127.425 115.769 125.629 114.487 124.508C111.8 122.218 110.251 118.864 110.249 115.333C110.249 110.957 112.584 106.913 116.374 104.724C120.164 102.537 124.834 102.537 128.624 104.724C132.414 106.913 134.749 110.956 134.749 115.333C134.747 118.864 133.198 122.219 130.511 124.508C129.229 125.629 128.777 127.425 129.375 129.018C129.973 130.611 131.495 131.667 133.198 131.667H136.652C141.562 131.672 146.266 133.624 149.737 137.095C153.208 140.566 155.16 145.271 155.166 150.18L155.166 180.667Z" fill="#03C29E"/>
<path d="M224.583 69.3947C227.967 69.3947 230.708 66.653 230.708 63.2697H226.625C226.625 64.3981 225.712 65.3113 224.583 65.3113C223.455 65.3113 222.542 64.3981 222.542 63.2697H218.458C218.458 66.653 221.2 69.3947 224.583 69.3947Z" fill="#03C29E"/>
<path d="M208.25 69.3947C211.633 69.3947 214.375 66.653 214.375 63.2697H210.292C210.292 64.3981 209.378 65.3113 208.25 65.3113C207.122 65.3113 206.208 64.3981 206.208 63.2697H202.125C202.125 66.653 204.867 69.3947 208.25 69.3947Z" fill="#03C29E"/>
<path d="M206.211 85.7279H210.294C210.294 82.3446 213.036 79.6029 216.419 79.6029C219.802 79.6029 222.544 82.3446 222.544 85.7279H226.627C226.627 82.0803 224.682 78.7116 221.523 76.8869C218.364 75.0641 214.474 75.0641 211.315 76.8869C208.155 78.7117 206.21 82.0805 206.21 85.7279H206.211Z" fill="#03C29E"/>
<path d="M208.25 193.939C209.902 193.939 211.391 192.943 212.022 191.418C212.654 189.892 212.306 188.136 211.138 186.968C209.969 185.799 208.214 185.451 206.688 186.084C205.162 186.714 204.167 188.204 204.167 189.855C204.167 190.938 204.597 191.977 205.363 192.743C206.128 193.508 207.167 193.939 208.25 193.939Z" fill="#03C29E"/>
<path d="M224.583 185.772C222.932 185.772 221.442 186.767 220.812 188.293C220.179 189.819 220.527 191.574 221.696 192.743C222.864 193.911 224.62 194.259 226.146 193.627C227.671 192.996 228.667 191.507 228.667 189.855C228.667 188.772 228.236 187.733 227.471 186.968C226.705 186.202 225.666 185.772 224.583 185.772Z" fill="#03C29E"/>
<path d="M222.544 203.3L219.906 200.659C219.523 200.274 219.004 200.059 218.461 200.059C217.917 200.059 217.398 200.274 217.015 200.659L214.377 203.3L211.74 200.659C211.357 200.274 210.837 200.059 210.294 200.059C209.751 200.059 209.231 200.274 208.848 200.659L204.765 204.742L207.656 207.633L210.294 204.992L212.932 207.633C213.314 208.018 213.834 208.233 214.377 208.233C214.92 208.233 215.44 208.018 215.823 207.633L218.461 204.992L221.098 207.633C221.481 208.018 222.001 208.233 222.544 208.233C223.087 208.233 223.607 208.018 223.989 207.633L228.073 203.55L225.182 200.659L222.544 203.3Z" fill="#03C29E"/>
<path d="M20.4167 192.917C22.0683 192.917 23.5576 191.921 24.1883 190.396C24.8209 188.87 24.4727 187.114 23.3042 185.946C22.1357 184.777 20.3803 184.429 18.8544 185.062C17.3287 185.692 16.3334 187.182 16.3334 188.833C16.3334 189.916 16.7636 190.955 17.5292 191.721C18.2948 192.486 19.3339 192.917 20.4167 192.917Z" fill="#03C29E"/>
<path d="M36.75 192.917C38.4015 192.917 39.8909 191.921 40.5216 190.396C41.1541 188.87 40.8059 187.114 39.6375 185.946C38.469 184.777 36.7135 184.429 35.1877 185.062C33.6619 185.692 32.6666 187.182 32.6666 188.833C32.6666 189.916 33.0968 190.955 33.8625 191.721C34.6281 192.486 35.6672 192.917 36.75 192.917Z" fill="#03C29E"/>
<path d="M20.4166 203.123C20.4166 205.288 21.2771 207.366 22.8083 208.898C24.3395 210.429 26.4177 211.289 28.5833 211.289C30.7489 211.289 32.8271 210.429 34.3583 208.898C35.8895 207.366 36.75 205.288 36.75 203.123C36.75 200.957 35.8895 198.879 34.3583 197.348C32.8271 195.816 30.7489 194.956 28.5833 194.956C26.4177 194.956 24.3395 195.816 22.8083 197.348C21.2771 198.879 20.4166 200.957 20.4166 203.123ZM28.5833 199.039C30.2349 199.039 31.7242 200.035 32.3549 201.56C32.9875 203.086 32.6393 204.842 31.4708 206.01C30.3023 207.179 28.5468 207.527 27.021 206.894C25.4953 206.264 24.5 204.774 24.5 203.123C24.5 200.868 26.3284 199.039 28.5833 199.039Z" fill="#03C29E"/>
<path d="M20.4166 65.3114C20.9581 65.3114 21.4775 65.5265 21.8604 65.9093C22.2433 66.292 22.4583 66.8116 22.4583 67.353H26.5416C26.5416 63.9697 23.8 61.228 20.4166 61.228C17.0333 61.228 14.2916 63.9697 14.2916 67.353H18.375C18.375 66.2246 19.2882 65.3114 20.4166 65.3114Z" fill="#03C29E"/>
<path d="M36.75 65.3114C37.2914 65.3114 37.8109 65.5265 38.1938 65.9093C38.5766 66.292 38.7917 66.8116 38.7917 67.353H42.875C42.875 63.9697 40.1333 61.228 36.75 61.228C33.3667 61.228 30.625 63.9697 30.625 67.353H34.7083C34.7083 66.2246 35.6216 65.3114 36.75 65.3114Z" fill="#03C29E"/>
<path d="M18.3773 77.5613C18.3773 81.209 20.3224 84.5777 23.4817 86.4023C26.6408 88.2252 30.5307 88.2252 33.6901 86.4023C36.8492 84.5776 38.7945 81.2088 38.7945 77.5613C38.7945 77.0199 38.5793 76.5004 38.1966 76.1175C37.8138 75.7347 37.2942 75.5197 36.7528 75.5197H20.4195C19.2911 75.5197 18.3778 76.4329 18.3778 77.5613H18.3773ZM34.3588 79.603C33.4929 82.0493 31.1796 83.6845 28.5857 83.6845C25.9917 83.6845 23.6782 82.0493 22.8125 79.603H34.3588Z" fill="#03C29E"/>
<path d="M118.417 62.25H126.583V70.4167H118.417V62.25Z" fill="#03C29E"/>
<path d="M118.417 78.5834H126.583V86.75H118.417V78.5834Z" fill="#03C29E"/>
<path d="M183.75 94.9166H191.917V103.083H183.75V94.9166Z" fill="#03C29E"/>
<path d="M167.417 103.083H175.583V111.25H167.417V103.083Z" fill="#03C29E"/>
<path d="M151.083 111.25H159.25V119.417H151.083V111.25Z" fill="#03C29E"/>
<path d="M53.0834 94.9166H61.25V103.083H53.0834V94.9166Z" fill="#03C29E"/>
<path d="M69.4166 103.083H77.5833V111.25H69.4166V103.083Z" fill="#03C29E"/>
<path d="M85.75 111.25H93.9167V119.417H85.75V111.25Z" fill="#03C29E"/>
<path d="M81.6666 197H89.8333V205.167H81.6666V197Z" fill="#03C29E"/>
<path d="M65.3334 197H73.5V205.167H65.3334V197Z" fill="#03C29E"/>
<path d="M171.5 197H179.667V205.167H171.5V197Z" fill="#03C29E"/>
<path d="M155.167 197H163.333V205.167H155.167V197Z" fill="#03C29E"/>
</g>
<defs>
<clipPath id="clip0_220_118">
<rect width="245" height="245" fill="white"/>
</clipPath>
</defs>
</svg>
