<svg width="225" height="225" viewBox="0 0 225 225" fill="none" xmlns="http://www.w3.org/2000/svg">
<path d="M171.158 49H53.6261C47.771 49 43 53.816 43 59.7276V138.328C43 143.801 47.3368 148.618 52.7587 148.837H95.4774V160.659H81.8164C77.0454 160.659 73.3595 164.6 73.3595 169.197C73.3595 174.014 77.2629 177.736 81.8164 177.736H142.967C147.738 177.736 151.424 173.795 151.424 169.197C151.424 164.38 147.52 160.659 142.967 160.659H129.523V148.837H171.375C177.23 148.837 182 144.02 182 138.109L181.999 59.7283C181.782 53.8167 177.011 49.0008 171.156 49.0008L171.158 49ZM53.6261 53.3786H171.375C174.845 53.3786 177.664 56.225 177.664 59.7276V130.006H93.3099L92.8767 113.148C92.8767 111.616 93.3099 110.302 94.3941 109.207C95.4783 108.112 96.7791 107.675 98.2975 107.675C101.333 107.675 104.586 106.58 106.971 104.829L125.403 90.5975C126.271 89.9403 126.487 88.6269 125.836 87.5323L124.752 86.0002L144.703 72.6448C145.787 71.9876 146.003 70.6743 145.353 69.5796C145.137 69.1422 144.703 68.9224 144.269 68.7037H166.821C168.122 68.7037 168.99 67.8278 168.99 66.5144C168.99 65.2011 168.122 64.3252 166.821 64.3252H108.273C106.972 64.3252 106.104 65.2011 106.104 66.5144C106.104 67.8278 106.972 68.7037 108.273 68.7037H142.752C142.535 68.7037 142.535 68.7037 142.318 68.9224L122.151 82.4964L121.067 80.9643C120.416 80.0884 119.115 79.6509 118.031 80.3071L95.0449 94.9759H79.432C78.5645 94.9759 77.6969 95.6331 77.4803 96.508L74.6611 104.39H73.7936L70.9744 96.508C70.7577 95.6321 69.8902 94.9759 69.0227 94.9759C61.6499 94.9759 55.7948 100.887 55.7948 108.331V130.006H47.338V59.7278C47.338 56.2252 50.1572 53.3788 53.6273 53.3788L53.6261 53.3786ZM67.2872 120.811C65.9864 120.811 65.1188 121.687 65.1188 123V130.006H60.1311V108.331C60.1311 103.953 63.3837 100.23 67.5038 99.5742L70.323 107.456C70.5396 108.332 71.4072 108.989 72.2747 108.989H76.3948C77.2623 108.989 78.1299 108.331 78.3465 107.456L81.1657 99.5742H95.9109C96.3441 99.5742 96.7784 99.3555 96.9951 99.1368L118.896 84.9046C119.113 85.1233 121.281 88.4072 121.065 88.1886L104.15 101.106C102.415 102.42 100.247 103.077 98.078 103.077C95.4753 103.077 93.0903 104.172 91.1388 105.923C89.187 107.894 88.3195 110.302 88.3195 113.148L88.7528 130.006H69.0199V123C69.4552 121.687 68.371 120.811 67.2868 120.811L67.2872 120.811ZM147.087 169.198C147.087 171.606 145.135 173.358 142.967 173.358H81.8161C79.4311 173.358 77.6961 171.387 77.6961 169.198C77.6961 167.008 79.6478 165.038 81.8161 165.038H142.967C145.352 165.038 147.087 166.79 147.087 169.198ZM125.186 160.659H99.5977V148.837H124.969V160.659H125.186ZM171.158 144.458H52.9739C49.939 144.239 47.3363 141.392 47.3363 138.109V134.386H177.445V138.109C177.446 141.611 174.627 144.458 171.157 144.458H171.158Z" fill="#03C29E"/>
<path d="M166.821 78.5557H139.281C137.98 78.5557 137.113 79.4316 137.113 80.7449C137.113 82.0583 137.98 82.9342 139.281 82.9342H166.821C168.122 82.9342 168.99 82.0583 168.99 80.7449C168.99 79.4316 168.123 78.5557 166.821 78.5557Z" fill="#03C29E"/>
<path d="M166.821 92.7866H128.656C127.355 92.7866 126.488 93.6625 126.488 94.9759C126.488 96.2892 127.355 97.1652 128.656 97.1652H167.038C168.339 97.1652 169.206 96.2893 169.206 94.9759C168.989 93.6625 168.122 92.7866 166.82 92.7866H166.821Z" fill="#03C29E"/>
<path d="M166.821 106.801H111.741C110.44 106.801 109.572 107.677 109.572 108.99C109.572 110.303 110.44 111.179 111.741 111.179H166.821C168.122 111.179 168.99 110.303 168.99 108.99C168.99 107.676 168.123 106.801 166.821 106.801Z" fill="#03C29E"/>
<path d="M74.4445 91.0347C80.7329 91.0347 85.7206 85.9989 85.7206 79.6499C85.7206 73.3009 80.7329 68.2651 74.4445 68.2651C68.1562 68.2651 63.1685 73.3009 63.1685 79.6499C63.1685 85.7803 68.1562 91.0347 74.4445 91.0347ZM74.4445 72.4249C78.3479 72.4249 81.3838 75.4901 81.3838 79.4311C81.3838 83.3721 78.3479 86.4373 74.4445 86.4373C70.5412 86.4373 67.5052 83.3721 67.5052 79.4311C67.5052 75.7097 70.5412 72.4249 74.4445 72.4249V72.4249Z" fill="#03C29E"/>
</svg>
