<svg width="491" height="372" viewBox="0 0 491 372" fill="none" xmlns="http://www.w3.org/2000/svg">
<g filter="url(#filter0_d_32_821)">
<rect x="8" y="4" width="474.127" height="356" rx="40.4545" fill="white"/>
<rect x="166.744" y="50.4451" width="164.453" height="132.891" rx="19.1031" fill="white" stroke="white" stroke-width="3.32229"/>
<path d="M266.836 149.071C271.955 152.287 277.975 154.003 284.133 154C288.737 154.016 293.293 153.104 297.49 151.324C298.295 150.947 298.805 150.173 298.805 149.328C298.805 148.482 298.295 147.71 297.49 147.332C291.132 144.367 289.471 131.501 289.305 125.704C291.831 123.929 293.486 121.271 293.898 118.333C294.308 115.393 293.44 112.424 291.488 110.096C291.615 109.814 291.68 109.511 291.677 109.204V90.5639C291.677 70.4285 275.307 57.9207 248.971 57.9207C222.635 57.9207 206.264 70.4291 206.264 90.5639V109.204C206.263 109.487 206.32 109.766 206.43 110.029C204.478 112.356 203.608 115.327 204.019 118.265C204.43 121.204 206.087 123.862 208.613 125.637C208.471 131.39 206.81 144.3 200.451 147.288C199.646 147.665 199.136 148.438 199.136 149.283C199.136 150.128 199.646 150.902 200.451 151.279C204.648 153.06 209.203 153.972 213.808 153.955C219.967 153.959 225.986 152.244 231.105 149.026C232.278 149.679 233.49 150.268 234.735 150.788V155.248L230.82 153.865C230.079 153.604 229.247 153.709 228.604 154.143C227.96 154.577 227.591 155.285 227.617 156.028H215.754C211.349 156.028 207.125 157.673 204.011 160.6C200.896 163.526 199.146 167.496 199.146 171.636V182.785C199.146 183.376 199.396 183.944 199.841 184.362C200.285 184.78 200.889 185.015 201.518 185.015H296.422C297.052 185.015 297.655 184.78 298.1 184.362C298.545 183.944 298.795 183.376 298.795 182.785V171.636C298.795 167.496 297.045 163.527 293.93 160.6C290.816 157.673 286.592 156.028 282.187 156.028H270.324C270.326 155.297 269.947 154.61 269.307 154.191C268.667 153.773 267.851 153.676 267.121 153.932L263.206 155.315V150.855C264.452 150.326 265.663 149.731 266.836 149.071L266.836 149.071ZM218.126 120.197V100.129C234.307 99.1926 244.841 88.9807 248.97 84.0972C253.099 89.0026 263.632 99.1926 279.814 100.129V120.197C279.814 130.553 273.935 140.122 264.392 145.3C254.848 150.478 243.091 150.478 233.548 145.3C224.004 140.122 218.126 130.553 218.126 120.197ZM208.635 116.852C208.64 115.473 209.098 114.127 209.948 113.002C210.797 111.876 211.996 111.025 213.381 110.564V120.197C213.381 121.2 213.381 122.204 213.547 123.185C212.123 122.749 210.883 121.902 210.001 120.766C209.119 119.629 208.642 118.259 208.635 116.853L208.635 116.852ZM289.304 116.852C289.298 118.259 288.82 119.629 287.939 120.765C287.056 121.902 285.816 122.749 284.392 123.185C284.392 122.204 284.559 121.2 284.559 120.197V110.564C285.943 111.025 287.142 111.876 287.992 113.002C288.841 114.127 289.3 115.472 289.304 116.852L289.304 116.852ZM291.677 148.581C284.804 150.387 277.451 149.587 271.201 146.351C277.437 141.683 281.823 135.18 283.657 127.889C284.013 127.889 284.392 127.889 284.748 127.778C284.986 132.861 286.291 143.007 291.677 148.581L291.677 148.581ZM248.97 62.3806C272.696 62.3806 286.931 72.9271 286.931 90.5644V106.64C286.17 106.324 285.374 106.085 284.559 105.927V92.3253C284.559 91.094 283.496 90.0956 282.186 90.0956C280.876 90.0956 279.814 91.094 279.814 92.3253V95.5802C261.544 94.332 251.082 79.1918 250.987 79.0354V79.0364C250.775 78.8194 250.554 78.6103 250.323 78.4122C250.22 78.4053 250.117 78.4053 250.015 78.4122C249.848 78.3336 249.674 78.2739 249.493 78.2331H248.97C248.813 78.2181 248.654 78.2181 248.496 78.2331C248.332 78.2769 248.172 78.3366 248.021 78.4122C247.908 78.4411 247.797 78.4779 247.689 78.5237C247.458 78.7218 247.236 78.9309 247.025 79.1478C247.025 79.3041 236.443 94.4433 218.198 95.6927V91.3665C218.198 90.1352 217.136 89.1368 215.826 89.1368C214.515 89.1368 213.453 90.1352 213.453 91.3665V105.927C212.637 106.085 211.842 106.324 211.08 106.64V90.5643C211.009 72.9265 225.245 62.3805 248.972 62.3805L248.97 62.3806ZM206.263 148.604C211.601 143.029 212.906 132.862 213.214 127.756C213.57 127.756 213.95 127.756 214.305 127.867H214.306C216.14 135.159 220.527 141.66 226.763 146.329C220.519 149.606 213.147 150.424 206.263 148.604L206.263 148.604ZM232.361 159.24L246.597 164.257V168.403L232.361 163.386V159.24ZM267.95 180.555V178.326H282.186V180.555H267.95ZM268.781 167.044C269.711 166.717 270.326 165.88 270.323 164.947V160.488H282.186C285.332 160.488 288.349 161.662 290.575 163.753C292.799 165.844 294.049 168.68 294.049 171.636V180.555H286.931V176.096C286.931 175.505 286.681 174.937 286.236 174.519C285.792 174.101 285.188 173.866 284.559 173.866H265.578C264.268 173.866 263.205 174.865 263.205 176.096V180.555H203.89V171.636C203.89 168.68 205.14 165.844 207.364 163.753C209.59 161.662 212.607 160.488 215.753 160.488H227.616V164.947C227.613 165.88 228.228 166.717 229.158 167.044L248.139 173.733C248.637 173.907 249.184 173.907 249.681 173.733L268.781 167.044ZM265.578 163.408L251.342 168.425V164.257L265.578 159.24V163.408ZM258.46 157.009L248.97 160.353L239.479 157.009V152.394C245.683 154.054 252.256 154.054 258.46 152.394V157.009Z" fill="#5C95FF"/>
<path d="M262.612 130.387C262.612 129.156 261.549 128.157 260.239 128.157C258.929 128.157 257.867 129.156 257.867 130.387C257.867 133.419 253.715 135.962 248.969 135.962C244.224 135.962 240.072 133.419 240.072 130.387C240.072 129.156 239.01 128.157 237.7 128.157C236.39 128.157 235.327 129.156 235.327 130.387C235.327 135.962 241.448 140.421 248.969 140.421C256.491 140.421 262.612 135.962 262.612 130.387Z" fill="#5C95FF"/>
<path d="M237.108 111.724C237.737 111.724 238.341 111.489 238.786 111.071C239.23 110.653 239.48 110.085 239.48 109.494C239.48 106.06 235.969 103.363 231.485 103.363C227 103.363 223.489 106.06 223.489 109.494C223.489 110.725 224.551 111.724 225.861 111.724C227.173 111.724 228.234 110.725 228.234 109.494C228.234 108.803 229.516 107.822 231.508 107.822C233.501 107.822 234.782 108.803 234.782 109.494H234.783C234.783 110.709 235.816 111.7 237.108 111.724H237.108Z" fill="#5C95FF"/>
<path d="M261.427 111.724C262.056 111.724 262.659 111.489 263.104 111.071C263.549 110.653 263.799 110.085 263.799 109.494C263.799 108.803 265.081 107.822 267.073 107.822C269.066 107.822 270.347 108.803 270.347 109.494C270.347 110.725 271.409 111.724 272.72 111.724C274.031 111.724 275.092 110.725 275.092 109.494C275.092 106.06 271.581 103.363 267.096 103.363C262.612 103.363 259.101 106.06 259.101 109.494H259.102C259.102 110.709 260.134 111.7 261.427 111.724H261.427Z" fill="#5C95FF"/>
<path d="M248.969 122.582C249.598 122.582 250.202 122.347 250.647 121.929C251.092 121.511 251.342 120.944 251.342 120.352V118.123C251.342 116.891 250.28 115.893 248.969 115.893C247.659 115.893 246.597 116.891 246.597 118.123V120.352C246.597 120.944 246.847 121.511 247.292 121.929C247.736 122.347 248.34 122.582 248.969 122.582Z" fill="#5C95FF"/>
<path d="M104.847 272.485V275.225H101.127V286.525H97.7071V275.225H93.9871V272.485H104.847ZM116.684 280.765C116.684 281.085 116.664 281.418 116.624 281.765H108.884C108.937 282.458 109.157 282.991 109.544 283.365C109.944 283.725 110.43 283.905 111.004 283.905C111.857 283.905 112.45 283.545 112.784 282.825H116.424C116.237 283.558 115.897 284.218 115.404 284.805C114.924 285.391 114.317 285.851 113.584 286.185C112.85 286.518 112.03 286.685 111.124 286.685C110.03 286.685 109.057 286.451 108.204 285.985C107.35 285.518 106.684 284.851 106.204 283.985C105.724 283.118 105.484 282.105 105.484 280.945C105.484 279.785 105.717 278.771 106.184 277.905C106.664 277.038 107.33 276.371 108.184 275.905C109.037 275.438 110.017 275.205 111.124 275.205C112.204 275.205 113.164 275.431 114.004 275.885C114.844 276.338 115.497 276.985 115.964 277.825C116.444 278.665 116.684 279.645 116.684 280.765ZM113.184 279.865C113.184 279.278 112.984 278.811 112.584 278.465C112.184 278.118 111.684 277.945 111.084 277.945C110.51 277.945 110.024 278.111 109.624 278.445C109.237 278.778 108.997 279.251 108.904 279.865H113.184ZM117.408 280.925C117.408 279.778 117.621 278.771 118.048 277.905C118.488 277.038 119.081 276.371 119.828 275.905C120.574 275.438 121.408 275.205 122.328 275.205C123.114 275.205 123.801 275.365 124.388 275.685C124.988 276.005 125.448 276.425 125.768 276.945V275.365H129.188V286.525H125.768V284.945C125.434 285.465 124.968 285.885 124.368 286.205C123.781 286.525 123.094 286.685 122.308 286.685C121.401 286.685 120.574 286.451 119.828 285.985C119.081 285.505 118.488 284.831 118.048 283.965C117.621 283.085 117.408 282.071 117.408 280.925ZM125.768 280.945C125.768 280.091 125.528 279.418 125.048 278.925C124.581 278.431 124.008 278.185 123.328 278.185C122.648 278.185 122.068 278.431 121.588 278.925C121.121 279.405 120.888 280.071 120.888 280.925C120.888 281.778 121.121 282.458 121.588 282.965C122.068 283.458 122.648 283.705 123.328 283.705C124.008 283.705 124.581 283.458 125.048 282.965C125.528 282.471 125.768 281.798 125.768 280.945ZM130.582 280.945C130.582 279.785 130.815 278.771 131.282 277.905C131.762 277.038 132.422 276.371 133.262 275.905C134.115 275.438 135.089 275.205 136.182 275.205C137.582 275.205 138.749 275.571 139.682 276.305C140.629 277.038 141.249 278.071 141.542 279.405H137.902C137.595 278.551 137.002 278.125 136.122 278.125C135.495 278.125 134.995 278.371 134.622 278.865C134.249 279.345 134.062 280.038 134.062 280.945C134.062 281.851 134.249 282.551 134.622 283.045C134.995 283.525 135.495 283.765 136.122 283.765C137.002 283.765 137.595 283.338 137.902 282.485H141.542C141.249 283.791 140.629 284.818 139.682 285.565C138.735 286.311 137.569 286.685 136.182 286.685C135.089 286.685 134.115 286.451 133.262 285.985C132.422 285.518 131.762 284.851 131.282 283.985C130.815 283.118 130.582 282.105 130.582 280.945ZM149.831 275.245C151.111 275.245 152.138 275.671 152.911 276.525C153.685 277.365 154.071 278.525 154.071 280.005V286.525H150.671V280.465C150.671 279.718 150.478 279.138 150.091 278.725C149.705 278.311 149.185 278.105 148.531 278.105C147.878 278.105 147.358 278.311 146.971 278.725C146.585 279.138 146.391 279.718 146.391 280.465V286.525H142.971V271.725H146.391V276.865C146.738 276.371 147.211 275.978 147.811 275.685C148.411 275.391 149.085 275.245 149.831 275.245ZM166.568 280.765C166.568 281.085 166.548 281.418 166.508 281.765H158.768C158.821 282.458 159.041 282.991 159.428 283.365C159.828 283.725 160.315 283.905 160.888 283.905C161.741 283.905 162.335 283.545 162.668 282.825H166.308C166.121 283.558 165.781 284.218 165.288 284.805C164.808 285.391 164.201 285.851 163.468 286.185C162.735 286.518 161.915 286.685 161.008 286.685C159.915 286.685 158.941 286.451 158.088 285.985C157.235 285.518 156.568 284.851 156.088 283.985C155.608 283.118 155.368 282.105 155.368 280.945C155.368 279.785 155.601 278.771 156.068 277.905C156.548 277.038 157.215 276.371 158.068 275.905C158.921 275.438 159.901 275.205 161.008 275.205C162.088 275.205 163.048 275.431 163.888 275.885C164.728 276.338 165.381 276.985 165.848 277.825C166.328 278.665 166.568 279.645 166.568 280.765ZM163.068 279.865C163.068 279.278 162.868 278.811 162.468 278.465C162.068 278.118 161.568 277.945 160.968 277.945C160.395 277.945 159.908 278.111 159.508 278.445C159.121 278.778 158.881 279.251 158.788 279.865H163.068ZM171.392 277.225C171.792 276.611 172.292 276.131 172.892 275.785C173.492 275.425 174.159 275.245 174.892 275.245V278.865H173.952C173.099 278.865 172.459 279.051 172.032 279.425C171.605 279.785 171.392 280.425 171.392 281.345V286.525H167.972V275.365H171.392V277.225ZM188.765 272.485V282.045C188.765 283.525 188.345 284.665 187.505 285.465C186.678 286.265 185.558 286.665 184.145 286.665C182.665 286.665 181.478 286.245 180.585 285.405C179.692 284.565 179.245 283.371 179.245 281.825H182.645C182.645 282.411 182.765 282.858 183.005 283.165C183.245 283.458 183.592 283.605 184.045 283.605C184.458 283.605 184.778 283.471 185.005 283.205C185.232 282.938 185.345 282.551 185.345 282.045V272.485H188.765ZM196.208 286.685C195.114 286.685 194.128 286.451 193.248 285.985C192.381 285.518 191.694 284.851 191.188 283.985C190.694 283.118 190.448 282.105 190.448 280.945C190.448 279.798 190.701 278.791 191.208 277.925C191.714 277.045 192.408 276.371 193.288 275.905C194.168 275.438 195.154 275.205 196.248 275.205C197.341 275.205 198.328 275.438 199.208 275.905C200.088 276.371 200.781 277.045 201.288 277.925C201.794 278.791 202.048 279.798 202.048 280.945C202.048 282.091 201.788 283.105 201.268 283.985C200.761 284.851 200.061 285.518 199.168 285.985C198.288 286.451 197.301 286.685 196.208 286.685ZM196.208 283.725C196.861 283.725 197.414 283.485 197.868 283.005C198.334 282.525 198.568 281.838 198.568 280.945C198.568 280.051 198.341 279.365 197.888 278.885C197.448 278.405 196.901 278.165 196.248 278.165C195.581 278.165 195.028 278.405 194.588 278.885C194.148 279.351 193.928 280.038 193.928 280.945C193.928 281.838 194.141 282.525 194.568 283.005C195.008 283.485 195.554 283.725 196.208 283.725ZM210.262 275.245C211.569 275.245 212.609 275.671 213.382 276.525C214.169 277.365 214.562 278.525 214.562 280.005V286.525H211.162V280.465C211.162 279.718 210.969 279.138 210.582 278.725C210.195 278.311 209.675 278.105 209.022 278.105C208.369 278.105 207.849 278.311 207.462 278.725C207.075 279.138 206.882 279.718 206.882 280.465V286.525H203.462V275.365H206.882V276.845C207.229 276.351 207.695 275.965 208.282 275.685C208.869 275.391 209.529 275.245 210.262 275.245ZM223.338 275.245C224.645 275.245 225.685 275.671 226.458 276.525C227.245 277.365 227.638 278.525 227.638 280.005V286.525H224.238V280.465C224.238 279.718 224.045 279.138 223.658 278.725C223.272 278.311 222.752 278.105 222.098 278.105C221.445 278.105 220.925 278.311 220.538 278.725C220.152 279.138 219.958 279.718 219.958 280.465V286.525H216.538V275.365H219.958V276.845C220.305 276.351 220.772 275.965 221.358 275.685C221.945 275.391 222.605 275.245 223.338 275.245ZM241.015 275.365L234.015 291.825H230.335L232.895 286.145L228.355 275.365H232.175L234.755 282.345L237.315 275.365H241.015ZM247.41 274.205C246.81 274.205 246.317 274.031 245.93 273.685C245.557 273.325 245.37 272.885 245.37 272.365C245.37 271.831 245.557 271.391 245.93 271.045C246.317 270.685 246.81 270.505 247.41 270.505C247.997 270.505 248.477 270.685 248.85 271.045C249.237 271.391 249.43 271.831 249.43 272.365C249.43 272.885 249.237 273.325 248.85 273.685C248.477 274.031 247.997 274.205 247.41 274.205ZM249.11 275.365V286.525H245.69V275.365H249.11ZM255.729 286.685C254.755 286.685 253.889 286.518 253.129 286.185C252.369 285.851 251.769 285.398 251.329 284.825C250.889 284.238 250.642 283.585 250.589 282.865H253.969C254.009 283.251 254.189 283.565 254.509 283.805C254.829 284.045 255.222 284.165 255.689 284.165C256.115 284.165 256.442 284.085 256.669 283.925C256.909 283.751 257.029 283.531 257.029 283.265C257.029 282.945 256.862 282.711 256.529 282.565C256.195 282.405 255.655 282.231 254.909 282.045C254.109 281.858 253.442 281.665 252.909 281.465C252.375 281.251 251.915 280.925 251.529 280.485C251.142 280.031 250.949 279.425 250.949 278.665C250.949 278.025 251.122 277.445 251.469 276.925C251.829 276.391 252.349 275.971 253.029 275.665C253.722 275.358 254.542 275.205 255.489 275.205C256.889 275.205 257.989 275.551 258.789 276.245C259.602 276.938 260.069 277.858 260.189 279.005H257.029C256.975 278.618 256.802 278.311 256.509 278.085C256.229 277.858 255.855 277.745 255.389 277.745C254.989 277.745 254.682 277.825 254.469 277.985C254.255 278.131 254.149 278.338 254.149 278.605C254.149 278.925 254.315 279.165 254.649 279.325C254.995 279.485 255.529 279.645 256.249 279.805C257.075 280.018 257.749 280.231 258.269 280.445C258.789 280.645 259.242 280.978 259.629 281.445C260.029 281.898 260.235 282.511 260.249 283.285C260.249 283.938 260.062 284.525 259.689 285.045C259.329 285.551 258.802 285.951 258.109 286.245C257.429 286.538 256.635 286.685 255.729 286.685ZM271.999 283.625V286.525H270.259C269.019 286.525 268.052 286.225 267.359 285.625C266.666 285.011 266.319 284.018 266.319 282.645V278.205H264.959V275.365H266.319V272.645H269.739V275.365H271.979V278.205H269.739V282.685C269.739 283.018 269.819 283.258 269.979 283.405C270.139 283.551 270.406 283.625 270.779 283.625H271.999ZM280.364 275.245C281.644 275.245 282.671 275.671 283.444 276.525C284.217 277.365 284.604 278.525 284.604 280.005V286.525H281.204V280.465C281.204 279.718 281.011 279.138 280.624 278.725C280.237 278.311 279.717 278.105 279.064 278.105C278.411 278.105 277.891 278.311 277.504 278.725C277.117 279.138 276.924 279.718 276.924 280.465V286.525H273.504V271.725H276.924V276.865C277.271 276.371 277.744 275.978 278.344 275.685C278.944 275.391 279.617 275.245 280.364 275.245ZM297.101 280.765C297.101 281.085 297.081 281.418 297.041 281.765H289.301C289.354 282.458 289.574 282.991 289.961 283.365C290.361 283.725 290.847 283.905 291.421 283.905C292.274 283.905 292.867 283.545 293.201 282.825H296.841C296.654 283.558 296.314 284.218 295.821 284.805C295.341 285.391 294.734 285.851 294.001 286.185C293.267 286.518 292.447 286.685 291.541 286.685C290.447 286.685 289.474 286.451 288.621 285.985C287.767 285.518 287.101 284.851 286.621 283.985C286.141 283.118 285.901 282.105 285.901 280.945C285.901 279.785 286.134 278.771 286.601 277.905C287.081 277.038 287.747 276.371 288.601 275.905C289.454 275.438 290.434 275.205 291.541 275.205C292.621 275.205 293.581 275.431 294.421 275.885C295.261 276.338 295.914 276.985 296.381 277.825C296.861 278.665 297.101 279.645 297.101 280.765ZM293.601 279.865C293.601 279.278 293.401 278.811 293.001 278.465C292.601 278.118 292.101 277.945 291.501 277.945C290.927 277.945 290.441 278.111 290.041 278.445C289.654 278.778 289.414 279.251 289.321 279.865H293.601ZM305.763 276.945C306.083 276.425 306.543 276.005 307.143 275.685C307.743 275.365 308.43 275.205 309.203 275.205C310.123 275.205 310.957 275.438 311.703 275.905C312.45 276.371 313.037 277.038 313.463 277.905C313.903 278.771 314.123 279.778 314.123 280.925C314.123 282.071 313.903 283.085 313.463 283.965C313.037 284.831 312.45 285.505 311.703 285.985C310.957 286.451 310.123 286.685 309.203 286.685C308.417 286.685 307.73 286.531 307.143 286.225C306.557 285.905 306.097 285.485 305.763 284.965V286.525H302.343V271.725H305.763V276.945ZM310.643 280.925C310.643 280.071 310.403 279.405 309.923 278.925C309.457 278.431 308.877 278.185 308.183 278.185C307.503 278.185 306.923 278.431 306.443 278.925C305.977 279.418 305.743 280.091 305.743 280.945C305.743 281.798 305.977 282.471 306.443 282.965C306.923 283.458 307.503 283.705 308.183 283.705C308.863 283.705 309.443 283.458 309.923 282.965C310.403 282.458 310.643 281.778 310.643 280.925ZM326.037 280.765C326.037 281.085 326.017 281.418 325.977 281.765H318.237C318.291 282.458 318.511 282.991 318.897 283.365C319.297 283.725 319.784 283.905 320.357 283.905C321.211 283.905 321.804 283.545 322.137 282.825H325.777C325.591 283.558 325.251 284.218 324.757 284.805C324.277 285.391 323.671 285.851 322.937 286.185C322.204 286.518 321.384 286.685 320.477 286.685C319.384 286.685 318.411 286.451 317.557 285.985C316.704 285.518 316.037 284.851 315.557 283.985C315.077 283.118 314.837 282.105 314.837 280.945C314.837 279.785 315.071 278.771 315.537 277.905C316.017 277.038 316.684 276.371 317.537 275.905C318.391 275.438 319.371 275.205 320.477 275.205C321.557 275.205 322.517 275.431 323.357 275.885C324.197 276.338 324.851 276.985 325.317 277.825C325.797 278.665 326.037 279.645 326.037 280.765ZM322.537 279.865C322.537 279.278 322.337 278.811 321.937 278.465C321.537 278.118 321.037 277.945 320.437 277.945C319.864 277.945 319.377 278.111 318.977 278.445C318.591 278.778 318.351 279.251 318.257 279.865H322.537ZM331.982 286.685C331.008 286.685 330.142 286.518 329.382 286.185C328.622 285.851 328.022 285.398 327.582 284.825C327.142 284.238 326.895 283.585 326.842 282.865H330.222C330.262 283.251 330.442 283.565 330.762 283.805C331.082 284.045 331.475 284.165 331.942 284.165C332.368 284.165 332.695 284.085 332.922 283.925C333.162 283.751 333.282 283.531 333.282 283.265C333.282 282.945 333.115 282.711 332.782 282.565C332.448 282.405 331.908 282.231 331.162 282.045C330.362 281.858 329.695 281.665 329.162 281.465C328.628 281.251 328.168 280.925 327.782 280.485C327.395 280.031 327.202 279.425 327.202 278.665C327.202 278.025 327.375 277.445 327.722 276.925C328.082 276.391 328.602 275.971 329.282 275.665C329.975 275.358 330.795 275.205 331.742 275.205C333.142 275.205 334.242 275.551 335.042 276.245C335.855 276.938 336.322 277.858 336.442 279.005H333.282C333.228 278.618 333.055 278.311 332.762 278.085C332.482 277.858 332.108 277.745 331.642 277.745C331.242 277.745 330.935 277.825 330.722 277.985C330.508 278.131 330.402 278.338 330.402 278.605C330.402 278.925 330.568 279.165 330.902 279.325C331.248 279.485 331.782 279.645 332.502 279.805C333.328 280.018 334.002 280.231 334.522 280.445C335.042 280.645 335.495 280.978 335.882 281.445C336.282 281.898 336.488 282.511 336.502 283.285C336.502 283.938 336.315 284.525 335.942 285.045C335.582 285.551 335.055 285.951 334.362 286.245C333.682 286.538 332.888 286.685 331.982 286.685ZM344.414 283.625V286.525H342.674C341.434 286.525 340.467 286.225 339.774 285.625C339.081 285.011 338.734 284.018 338.734 282.645V278.205H337.374V275.365H338.734V272.645H342.154V275.365H344.394V278.205H342.154V282.685C342.154 283.018 342.234 283.258 342.394 283.405C342.554 283.551 342.821 283.625 343.194 283.625H344.414ZM363.997 275.245C365.384 275.245 366.484 275.665 367.297 276.505C368.124 277.345 368.537 278.511 368.537 280.005V286.525H365.137V280.465C365.137 279.745 364.944 279.191 364.557 278.805C364.184 278.405 363.664 278.205 362.997 278.205C362.331 278.205 361.804 278.405 361.417 278.805C361.044 279.191 360.857 279.745 360.857 280.465V286.525H357.457V280.465C357.457 279.745 357.264 279.191 356.877 278.805C356.504 278.405 355.984 278.205 355.317 278.205C354.651 278.205 354.124 278.405 353.737 278.805C353.364 279.191 353.177 279.745 353.177 280.465V286.525H349.757V275.365H353.177V276.765C353.524 276.298 353.977 275.931 354.537 275.665C355.097 275.385 355.731 275.245 356.437 275.245C357.277 275.245 358.024 275.425 358.677 275.785C359.344 276.145 359.864 276.658 360.237 277.325C360.624 276.711 361.151 276.211 361.817 275.825C362.484 275.438 363.211 275.245 363.997 275.245ZM381.549 275.365V286.525H378.129V285.005C377.782 285.498 377.309 285.898 376.709 286.205C376.122 286.498 375.469 286.645 374.749 286.645C373.896 286.645 373.142 286.458 372.489 286.085C371.836 285.698 371.329 285.145 370.969 284.425C370.609 283.705 370.429 282.858 370.429 281.885V275.365H373.829V281.425C373.829 282.171 374.022 282.751 374.409 283.165C374.796 283.578 375.316 283.785 375.969 283.785C376.636 283.785 377.162 283.578 377.549 283.165C377.936 282.751 378.129 282.171 378.129 281.425V275.365H381.549ZM389.826 283.625V286.525H388.086C386.846 286.525 385.879 286.225 385.186 285.625C384.492 285.011 384.146 284.018 384.146 282.645V278.205H382.786V275.365H384.146V272.645H387.566V275.365H389.806V278.205H387.566V282.685C387.566 283.018 387.646 283.258 387.806 283.405C387.966 283.551 388.232 283.625 388.606 283.625H389.826ZM398.191 275.245C399.471 275.245 400.497 275.671 401.271 276.525C402.044 277.365 402.431 278.525 402.431 280.005V286.525H399.031V280.465C399.031 279.718 398.837 279.138 398.451 278.725C398.064 278.311 397.544 278.105 396.891 278.105C396.237 278.105 395.717 278.311 395.331 278.725C394.944 279.138 394.751 279.718 394.751 280.465V286.525H391.331V271.725H394.751V276.865C395.097 276.371 395.571 275.978 396.171 275.685C396.771 275.391 397.444 275.245 398.191 275.245ZM403.727 280.925C403.727 279.778 403.941 278.771 404.367 277.905C404.807 277.038 405.401 276.371 406.147 275.905C406.894 275.438 407.727 275.205 408.647 275.205C409.434 275.205 410.121 275.365 410.707 275.685C411.307 276.005 411.767 276.425 412.087 276.945V275.365H415.507V286.525H412.087V284.945C411.754 285.465 411.287 285.885 410.687 286.205C410.101 286.525 409.414 286.685 408.627 286.685C407.721 286.685 406.894 286.451 406.147 285.985C405.401 285.505 404.807 284.831 404.367 283.965C403.941 283.085 403.727 282.071 403.727 280.925ZM412.087 280.945C412.087 280.091 411.847 279.418 411.367 278.925C410.901 278.431 410.327 278.185 409.647 278.185C408.967 278.185 408.387 278.431 407.907 278.925C407.441 279.405 407.207 280.071 407.207 280.925C407.207 281.778 407.441 282.458 407.907 282.965C408.387 283.458 408.967 283.705 409.647 283.705C410.327 283.705 410.901 283.458 411.367 282.965C411.847 282.471 412.087 281.798 412.087 280.945ZM229.483 312.205H227.643V320.525H224.223V312.205H222.983V309.365H224.223V309.045C224.223 307.671 224.616 306.631 225.403 305.925C226.19 305.205 227.343 304.845 228.863 304.845C229.116 304.845 229.303 304.851 229.423 304.865V307.765C228.77 307.725 228.31 307.818 228.043 308.045C227.776 308.271 227.643 308.678 227.643 309.265V309.365H229.483V312.205ZM241.71 309.365V320.525H238.29V319.005C237.943 319.498 237.47 319.898 236.87 320.205C236.283 320.498 235.63 320.645 234.91 320.645C234.057 320.645 233.303 320.458 232.65 320.085C231.997 319.698 231.49 319.145 231.13 318.425C230.77 317.705 230.59 316.858 230.59 315.885V309.365H233.99V315.425C233.99 316.171 234.183 316.751 234.57 317.165C234.957 317.578 235.477 317.785 236.13 317.785C236.797 317.785 237.323 317.578 237.71 317.165C238.097 316.751 238.29 316.171 238.29 315.425V309.365H241.71ZM243.087 314.945C243.087 313.785 243.32 312.771 243.787 311.905C244.267 311.038 244.927 310.371 245.767 309.905C246.62 309.438 247.593 309.205 248.687 309.205C250.087 309.205 251.253 309.571 252.187 310.305C253.133 311.038 253.753 312.071 254.047 313.405H250.407C250.1 312.551 249.507 312.125 248.627 312.125C248 312.125 247.5 312.371 247.127 312.865C246.753 313.345 246.567 314.038 246.567 314.945C246.567 315.851 246.753 316.551 247.127 317.045C247.5 317.525 248 317.765 248.627 317.765C249.507 317.765 250.1 317.338 250.407 316.485H254.047C253.753 317.791 253.133 318.818 252.187 319.565C251.24 320.311 250.073 320.685 248.687 320.685C247.593 320.685 246.62 320.451 245.767 319.985C244.927 319.518 244.267 318.851 243.787 317.985C243.32 317.118 243.087 316.105 243.087 314.945ZM262.296 320.525L258.896 315.845V320.525H255.476V305.725H258.896V313.905L262.276 309.365H266.496L261.856 314.965L266.536 320.525H262.296ZM266.759 314.925C266.759 313.778 266.973 312.771 267.399 311.905C267.839 311.038 268.433 310.371 269.179 309.905C269.926 309.438 270.759 309.205 271.679 309.205C272.466 309.205 273.153 309.365 273.739 309.685C274.339 310.005 274.799 310.425 275.119 310.945V309.365H278.539V320.525H275.119V318.945C274.786 319.465 274.319 319.885 273.719 320.205C273.133 320.525 272.446 320.685 271.659 320.685C270.753 320.685 269.926 320.451 269.179 319.985C268.433 319.505 267.839 318.831 267.399 317.965C266.973 317.085 266.759 316.071 266.759 314.925ZM275.119 314.945C275.119 314.091 274.879 313.418 274.399 312.925C273.933 312.431 273.359 312.185 272.679 312.185C271.999 312.185 271.419 312.431 270.939 312.925C270.473 313.405 270.239 314.071 270.239 314.925C270.239 315.778 270.473 316.458 270.939 316.965C271.419 317.458 271.999 317.705 272.679 317.705C273.359 317.705 273.933 317.458 274.399 316.965C274.879 316.471 275.119 315.798 275.119 314.945ZM285.114 305.985L284.714 315.565H281.814L281.414 305.985H285.114ZM283.314 320.685C282.714 320.685 282.22 320.511 281.834 320.165C281.46 319.805 281.274 319.365 281.274 318.845C281.274 318.311 281.46 317.865 281.834 317.505C282.22 317.145 282.714 316.965 283.314 316.965C283.9 316.965 284.38 317.145 284.754 317.505C285.14 317.865 285.334 318.311 285.334 318.845C285.334 319.365 285.14 319.805 284.754 320.165C284.38 320.511 283.9 320.685 283.314 320.685Z" fill="#222222"/>
<path d="M175.206 219.102L159.927 216.899L153.094 203.037L146.261 216.899L130.982 219.102L142.049 229.877L139.429 245.109L153.094 237.909L166.758 245.109L164.163 229.877L175.206 219.102Z" fill="#EBE645"/>
<path d="M207.68 216.898L200.847 203.036L194.014 216.898L178.735 219.102L189.778 229.877L187.184 245.109L200.847 237.909L214.513 245.109L211.892 229.877L222.961 219.102L207.68 216.898Z" fill="#EBE645"/>
<path d="M255.406 216.898L248.573 203.036L241.74 216.898L226.461 219.102L237.528 229.877L234.91 245.109L248.573 237.909L262.237 245.109L259.642 229.877L270.686 219.102L255.406 216.898Z" fill="#EBE645"/>
<path d="M303.158 216.898L296.325 203.036L289.468 216.898L274.212 219.102L285.256 229.877L282.635 245.109L296.325 237.909L309.99 245.109L307.37 229.877L318.439 219.102L303.158 216.898Z" fill="#EBE645"/>
<path d="M366.168 219.102L350.888 216.899L344.055 203.037L337.223 216.899L321.943 219.102L332.987 229.877L330.392 245.109L344.056 237.909L357.721 245.109L355.101 229.877L366.168 219.102Z" fill="#EBE645"/>
</g>
<defs>
<filter id="filter0_d_32_821" x="0" y="0" width="490.127" height="372" filterUnits="userSpaceOnUse" color-interpolation-filters="sRGB">
<feFlood flood-opacity="0" result="BackgroundImageFix"/>
<feColorMatrix in="SourceAlpha" type="matrix" values="0 0 0 0 0 0 0 0 0 0 0 0 0 0 0 0 0 0 127 0" result="hardAlpha"/>
<feMorphology radius="4" operator="dilate" in="SourceAlpha" result="effect1_dropShadow_32_821"/>
<feOffset dy="4"/>
<feGaussianBlur stdDeviation="2"/>
<feComposite in2="hardAlpha" operator="out"/>
<feColorMatrix type="matrix" values="0 0 0 0 0 0 0 0 0 0 0 0 0 0 0 0 0 0 0.25 0"/>
<feBlend mode="normal" in2="BackgroundImageFix" result="effect1_dropShadow_32_821"/>
<feBlend mode="normal" in="SourceGraphic" in2="effect1_dropShadow_32_821" result="shape"/>
</filter>
</defs>
</svg>
