<svg width="245" height="245" viewBox="0 0 245 245" fill="none" xmlns="http://www.w3.org/2000/svg">
<rect width="245" height="245" fill="white"/>
<path fill-rule="evenodd" clip-rule="evenodd" d="M130.942 109.198C131.389 108.563 131.761 107.874 132.052 107.15C132.531 105.952 132.764 104.673 132.764 103.39C132.764 100.692 131.707 98.1385 129.801 96.2327C127.895 94.327 125.342 93.2665 122.647 93.2665C121.919 93.2665 121.199 93.3428 120.491 93.4921C120.097 93.6761 119.672 93.7941 119.239 93.8358C118.811 93.9816 118.398 94.1603 117.991 94.3634C116.582 95.0785 115.372 96.1164 114.458 97.4061C113.949 98.1177 113.359 98.7616 112.708 99.2823C112.62 99.3518 112.547 99.4056 112.482 99.4507C111.839 99.9402 111.155 100.331 110.408 100.645C109.532 101.009 108.621 101.28 107.69 101.468C106.763 101.655 105.817 101.759 104.873 101.759C101.565 101.759 98.3766 100.619 95.8164 98.5291C93.2511 96.4394 91.4946 93.5406 90.8279 90.2987C90.4183 88.2975 91.72 86.3292 93.7212 85.9196C95.7225 85.5135 97.6873 86.8117 98.0969 88.813C98.418 90.3751 99.2598 91.7688 100.497 92.7755C101.738 93.7822 103.276 94.3255 104.873 94.3255C105.328 94.3255 105.788 94.2873 106.235 94.1988C106.687 94.1068 107.131 93.9645 107.556 93.7892C107.687 93.7319 107.829 93.6659 107.95 93.5861C108.122 93.4333 108.271 93.2997 108.41 93.1001C110.023 90.8385 112.147 89.0004 114.624 87.7405C115.243 87.4264 115.879 87.147 116.53 86.9091C117.062 85.9597 117.498 84.9565 117.828 83.9186C118.295 82.4519 118.555 80.9211 118.578 79.3815C118.593 78.3175 118.505 77.2501 118.31 76.2C118.116 75.1585 117.809 74.1363 117.411 73.1573C116.646 71.262 117.568 69.0889 119.46 68.3181C121.351 67.5526 123.528 68.4795 124.299 70.3662C124.884 71.8137 125.321 73.3168 125.607 74.8531C125.89 76.3839 126.021 77.946 125.994 79.5048C125.96 81.6987 125.616 83.8839 124.969 85.9858C128.778 86.4909 132.314 88.2283 135.06 90.9743C138.359 94.2773 140.204 98.7191 140.204 103.389C140.204 105.613 139.769 107.819 138.944 109.886C138.144 111.899 136.992 113.729 135.553 115.281C134.845 116.15 133.803 116.633 132.686 116.633H94.3045C89.6652 116.633 85.2423 118.427 81.9241 121.675C78.6089 124.921 76.7032 129.3 76.6023 133.944C76.5606 135.993 74.8718 137.619 72.8237 137.581C70.7756 137.539 69.1441 135.843 69.1875 133.795C69.3246 127.21 72.0166 120.986 76.7291 116.378C81.4382 111.773 87.7126 109.201 94.3047 109.201H130.943L130.942 109.198ZM163.277 171.609L177.712 221.636C178.046 222.799 179.045 223.469 180.243 223.459L202.224 223.256C203.437 223.244 204.386 222.535 204.716 221.36L205.707 182.846C205.752 181.035 206.591 178.356 209.118 176.989C223.783 169.035 241.814 152.317 229.758 127.469C228.399 124.426 226.672 121.588 224.637 119.012C222.91 116.831 222.497 114.113 223.493 111.518C223.692 111.009 223.871 110.489 224.036 109.959C224.848 107.39 225.284 104.665 225.284 101.843C225.284 94.8693 222.627 88.506 218.279 83.709C214.36 79.3941 209.061 76.3548 203.069 75.284C202.606 65.059 198.272 55.8444 191.497 49.0737C184.321 41.8968 174.404 37.4584 163.456 37.4584C160.856 37.4584 158.308 37.7118 155.831 38.1926C153.967 38.5571 152.148 39.0535 150.385 39.6696C146.924 34.7473 142.369 30.6475 137.079 27.7264C131.402 24.5918 124.879 22.8112 117.947 22.8112C110.141 22.8112 102.857 25.0693 96.716 28.971C91.0418 32.5777 86.3452 37.5919 83.1154 43.53C81.673 42.978 80.1786 42.5268 78.6445 42.1831C76.3621 41.6781 74.0208 41.409 71.6463 41.409C64.3077 41.409 57.544 43.8702 52.1303 48.0202C46.9703 51.9672 43.0424 57.4485 41.0255 63.7803C32.7534 66.0314 25.5521 70.8932 20.3761 77.4279C15.0094 84.1951 11.8053 92.7485 11.8053 102.043C11.8053 112.992 16.2417 122.906 23.4206 130.08C30.5975 137.256 40.5137 141.695 51.462 141.695C54.371 141.695 57.2121 141.381 59.9528 140.78C61.4923 140.447 62.9954 140.018 64.4654 139.51C64.783 146.464 67.7354 152.736 72.3434 157.349C77.2275 162.233 83.9778 165.253 91.4306 165.253L155.143 165.367C156.947 165.367 161.613 165.402 163.279 171.611L163.277 171.609ZM217.081 188.372L216.484 224.658C214.684 231.066 208.965 235.388 202.321 235.449L180.344 235.655C173.65 235.716 167.799 231.433 165.947 224.98L152.188 177.054H91.4298C81.1164 177.054 71.2855 172.985 63.994 165.692C60.4116 162.11 57.6014 157.906 55.6681 153.327C54.2709 153.442 52.8667 153.499 51.4608 153.499C37.7749 153.499 24.7453 148.098 15.0709 138.428C5.39775 128.75 0 115.724 0 102.038C0 90.4093 3.89657 79.2005 11.1203 70.0899C16.6589 63.1006 23.9051 57.6797 32.1132 54.3454C35.0986 48.2097 39.4932 42.819 44.9522 38.6392C52.6307 32.7589 61.9724 29.6014 71.6451 29.6014C73.7661 29.6014 75.8836 29.7542 77.9768 30.0614C81.4794 25.7466 85.6642 22.0026 90.3799 19.0051C98.6365 13.7566 108.165 11 117.946 11C126.647 11 135.169 13.1818 142.787 17.3891C147.166 19.8086 151.163 22.8512 154.653 26.4041C157.559 25.899 160.506 25.6456 163.458 25.6456C177.144 25.6456 190.174 31.0434 199.848 40.7201C206.904 47.7756 211.705 56.6414 213.772 66.2656C218.783 68.4474 223.304 71.6741 227.026 75.7704C233.519 82.925 237.094 92.1778 237.094 101.84C237.094 105.799 236.494 109.731 235.303 113.504C243.855 126.286 245 137.291 245 143.597C245 174.838 217.085 181.931 217.085 188.373L217.081 188.372ZM179.037 173.225V173.222C181.361 172.659 183.718 174.095 184.285 176.413L192.402 209.726C192.967 212.047 191.532 214.407 189.21 214.972V214.975C186.886 215.538 184.529 214.102 183.961 211.783L175.845 178.47C175.279 176.15 176.715 173.793 179.037 173.225ZM103.509 125.255C105.561 125.255 107.227 126.919 107.227 128.973C107.227 131.024 105.566 132.691 103.509 132.691C101.687 132.691 99.9599 133.406 98.6701 134.692C97.384 135.981 96.6637 137.712 96.6637 139.534C96.6637 141.357 97.384 143.087 98.6701 144.373C99.9562 145.659 101.687 146.38 103.509 146.38H157.576C159.627 146.38 161.294 148.044 161.294 150.098C161.294 152.149 159.629 153.815 157.576 153.815H103.509C99.7151 153.815 96.0979 152.314 93.4145 149.631C90.7312 146.947 89.235 143.334 89.235 139.536C89.235 135.738 90.7312 132.121 93.4145 129.438C96.0979 126.754 99.7152 125.258 103.509 125.258V125.255ZM178.131 80.6883C179.906 79.3553 181.855 78.2654 183.922 77.4496C186.812 76.3092 189.898 75.7191 193.007 75.7191C193.217 75.7191 193.429 75.7347 193.639 75.7347C195.687 75.7799 197.318 77.4721 197.275 79.5167C197.233 81.5649 195.541 83.1912 193.493 83.153C193.331 83.1495 193.168 83.153 193.007 83.153C190.825 83.153 188.659 83.5626 186.633 84.3628C185.642 84.7533 184.689 85.2358 183.789 85.7982C186.545 89.4084 188.041 93.8099 188.041 98.3924C188.041 102.025 187.076 105.588 185.269 108.735C183.459 111.885 180.855 114.511 177.712 116.337C175.943 117.363 173.666 116.754 172.64 114.985C171.614 113.213 172.224 110.943 173.987 109.913C176.004 108.742 177.677 107.062 178.842 105.04C180.005 103.017 180.607 100.721 180.607 98.3901C180.607 94.8372 179.21 91.4736 176.702 88.9618C174.194 86.4503 170.821 85.0566 167.273 85.0566C164.889 85.0566 162.549 85.6918 160.494 86.9016C158.442 88.1183 156.75 89.8574 155.597 91.9438C154.61 93.7385 152.355 94.3981 150.555 93.4105C148.76 92.4264 148.101 90.1648 149.092 88.3682C150.883 85.1104 153.513 82.4044 156.713 80.5124C159.914 78.6257 163.558 77.6225 167.271 77.6225C171.123 77.6225 174.867 78.6795 178.128 80.6842L178.131 80.6883ZM75.2275 74.046C73.2263 72.6644 71.0585 71.5189 68.7847 70.651C65.3168 69.3232 61.6336 68.6498 57.9212 68.6498C57.2478 68.6498 56.5691 68.6689 55.8922 68.7106C55.2153 68.7557 54.5401 68.8216 53.8702 68.9136C51.8377 69.1861 49.9701 67.7577 49.6976 65.7287C49.4251 63.6997 50.8501 61.8321 52.8791 61.5596C53.7175 61.445 54.5558 61.36 55.3976 61.3027C56.2394 61.2454 57.0777 61.2142 57.9196 61.2142C62.5366 61.2142 67.1186 62.0647 71.4281 63.7101C74.8856 65.0344 78.1278 66.8603 81.0524 69.1238C84.9958 66.7078 89.5085 65.4407 94.1567 65.4407C95.8403 65.4407 97.5221 65.616 99.1709 65.9545C100.822 66.2912 102.436 66.7893 103.988 67.4506C105.867 68.2508 106.747 70.4412 105.947 72.3156C105.147 74.1954 102.962 75.0788 101.082 74.2787C99.9904 73.8152 98.8535 73.4594 97.6906 73.2216C96.5312 72.9839 95.3405 72.8728 94.1568 72.8728C89.4446 72.8728 84.9733 74.7248 81.6426 78.0555C78.3118 81.3862 76.4599 85.8575 76.4599 90.5661C76.4599 91.7984 76.5866 93.0273 76.8435 94.2301C77.1004 95.4399 77.4822 96.6184 77.9838 97.7483C78.8066 99.6159 77.9491 101.825 76.078 102.648C74.2105 103.467 72.0096 102.61 71.185 100.746C70.4769 99.1489 69.9371 97.4809 69.5778 95.7732C69.2133 94.0618 69.0311 92.3157 69.0311 90.5661C69.0311 84.46 71.2249 78.6299 75.2291 74.044L75.2275 74.046ZM196.277 109.497C194.352 108.801 193.352 106.668 194.048 104.743C194.744 102.818 196.878 101.822 198.802 102.52C202.347 103.799 205.674 105.635 208.652 107.944C211.631 110.256 214.241 113.024 216.369 116.139C217.522 117.828 217.084 120.144 215.397 121.296C213.705 122.452 211.389 122.016 210.237 120.324C208.548 117.851 206.478 115.65 204.112 113.817C201.743 111.979 199.094 110.517 196.275 109.498L196.277 109.497ZM204.562 134.614C203.218 133.08 203.374 130.721 204.911 129.377C206.445 128.037 208.804 128.194 210.143 129.73C211.785 131.603 213.084 133.765 213.96 136.096C214.84 138.431 215.297 140.913 215.297 143.409C215.297 148.933 213.118 154.189 209.213 158.092C205.308 161.998 200.056 164.171 194.529 164.171C192.021 164.171 189.531 163.711 187.188 162.827C184.841 161.939 182.67 160.627 180.792 158.966C179.264 157.613 179.118 155.256 180.47 153.729C181.817 152.205 184.18 152.059 185.703 153.408C186.91 154.475 188.303 155.314 189.806 155.881C191.315 156.456 192.919 156.739 194.531 156.739C198.081 156.739 201.453 155.345 203.959 152.834C206.467 150.325 207.865 146.956 207.865 143.409C207.865 141.805 207.582 140.212 207.014 138.712C206.452 137.211 205.62 135.822 204.563 134.616L204.562 134.614ZM178.863 126.564C179.882 124.788 182.156 124.167 183.931 125.186C185.712 126.199 186.328 128.478 185.313 130.254C183.499 133.432 180.873 136.068 177.707 137.907C174.541 139.745 170.947 140.713 167.288 140.713C161.763 140.713 156.508 138.538 152.604 134.63C148.699 130.724 146.521 125.473 146.521 119.949C146.521 117.362 147.01 114.796 147.953 112.389C148.89 109.981 150.28 107.769 152.03 105.869C153.415 104.365 155.77 104.269 157.275 105.654C158.78 107.039 158.879 109.395 157.494 110.9C156.369 112.121 155.472 113.545 154.868 115.091C154.267 116.638 153.957 118.288 153.957 119.95C153.957 123.499 155.354 126.866 157.862 129.378C160.37 131.886 163.742 133.278 167.29 133.278C169.64 133.278 171.949 132.662 173.985 131.483C176.017 130.305 177.702 128.609 178.865 126.564L178.863 126.564ZM137.846 63.131C137.865 62.7873 137.872 62.4419 137.872 62.0983C137.872 57.3635 136.008 52.8646 132.658 49.5148C129.308 46.1649 124.811 44.3041 120.075 44.3041C118.02 44.3041 115.972 44.6529 114.034 45.349C112.101 46.045 110.306 47.0794 108.722 48.3881C107.144 49.6968 104.794 49.4746 103.492 47.8934C102.19 46.3157 102.409 43.9743 103.986 42.6672C106.234 40.8066 108.787 39.3521 111.531 38.3679C114.268 37.3803 117.162 36.8631 120.076 36.8631C126.791 36.8631 133.168 39.5083 137.915 44.2555C141.134 47.4717 143.412 51.4759 144.526 55.8548C148.143 53.378 152.427 52.038 156.853 52.038C159.583 52.038 162.292 52.5588 164.83 53.5585C167.376 54.5531 169.71 56.0232 171.713 57.8873C173.215 59.281 173.298 61.6346 171.901 63.1326C170.507 64.634 168.157 64.7173 166.656 63.3201C165.338 62.0947 163.8 61.1262 162.124 60.4684C160.447 59.8105 158.656 59.4773 156.853 59.4773C153.442 59.4773 150.158 60.6679 147.555 62.8688C145.154 64.8978 143.167 68.3656 142.642 71.4622C142.302 73.4842 140.395 74.8467 138.374 74.5135C136.349 74.1733 134.979 72.2589 135.323 70.2333C135.745 67.7339 136.597 65.3337 137.845 63.1293L137.846 63.131ZM53.6761 115.558C55.7207 115.665 57.2932 117.415 57.1908 119.454C57.0919 121.49 55.3337 123.075 53.2943 122.969C51.6749 122.884 50.0642 122.629 48.5021 122.207C46.9366 121.785 45.4161 121.2 43.9739 120.465C38.4544 117.651 34.3199 112.793 32.4093 106.899C30.5035 101.015 31.0051 94.6604 33.8187 89.148C34.5269 87.7577 35.3808 86.4421 36.3528 85.2202C37.3213 84.0035 38.4199 82.877 39.6141 81.879C41.1796 80.5703 43.5384 80.7803 44.8439 82.3459C46.1526 83.908 45.9426 86.2651 44.3804 87.5757C43.5647 88.2526 42.8218 89.0181 42.1605 89.846C41.5027 90.6722 40.9247 91.573 40.4422 92.5172C38.5208 96.2766 38.1754 100.605 39.4771 104.625C40.7754 108.633 43.5924 111.929 47.3431 113.843C48.3238 114.345 49.3565 114.748 50.424 115.034C51.4845 115.317 52.5797 115.501 53.6784 115.558L53.6761 115.558Z" fill="#03C29E"/>
</svg>
